# Blender 5.0.0
# www.blender.org
o Teapot
v 0.432458 0.657780 1.424640
v 0.419568 0.720780 1.386270
v -0.046102 0.720780 1.459600
v -0.046102 0.657780 1.500000
v 0.406871 0.752280 1.348469
v -0.046102 0.752280 1.419800
v 0.397427 0.752280 1.320356
v -0.046102 0.752280 1.390200
v 0.394300 0.720780 1.311049
v -0.046102 0.720780 1.380400
v 0.400554 0.657780 1.329664
v -0.046102 0.657780 1.400000
v 0.844778 0.657780 1.213920
v 0.820783 0.720780 1.181225
v 0.797145 0.752280 1.149016
v 0.779565 0.752280 1.125061
v 0.773745 0.720780 1.117130
v 0.785386 0.657780 1.132992
v 1.167818 0.657780 0.890880
v 1.135123 0.720780 0.866886
v 1.102913 0.752280 0.843248
v 1.078959 0.752279 0.825668
v 1.071028 0.720780 0.819847
v 1.086890 0.657780 0.831488
v 1.378538 0.657780 0.478560
v 1.340167 0.720780 0.465671
v 1.302367 0.752280 0.452973
v 1.274254 0.752280 0.443529
v 1.264946 0.720780 0.440403
v 1.283562 0.657780 0.446656
v 1.453898 0.657780 -0.000000
v 1.413498 0.720780 -0.000000
v 1.373698 0.752280 -0.000000
v 1.344098 0.752280 -0.000000
v 1.334298 0.720780 -0.000000
v 1.353898 0.657780 -0.000000
v -1.470742 0.657780 0.478560
v -1.432372 0.720780 0.465671
v -1.505702 0.720780 -0.000000
v -1.546102 0.657780 -0.000000
v -1.394572 0.752280 0.452973
v -1.465902 0.752280 -0.000000
v -1.366459 0.752280 0.443529
v -1.436302 0.752280 -0.000000
v -1.357151 0.720780 0.440403
v -1.426502 0.720780 -0.000000
v -1.375766 0.657780 0.446656
v -1.446102 0.657780 -0.000000
v -1.260022 0.657780 0.890880
v -1.227327 0.720780 0.866886
v -1.195118 0.752280 0.843248
v -1.171163 0.752280 0.825668
v -1.163232 0.720780 0.819847
v -1.179094 0.657780 0.831488
v -0.936982 0.657780 1.213920
v -0.912988 0.720780 1.181225
v -0.889350 0.752280 1.149016
v -0.871770 0.752279 1.125061
v -0.865950 0.720780 1.117130
v -0.877590 0.657780 1.132992
v -0.524662 0.657780 1.424640
v -0.511773 0.720780 1.386270
v -0.499075 0.752280 1.348469
v -0.489632 0.752280 1.320356
v -0.486505 0.720780 1.311049
v -0.492758 0.657780 1.329664
v -0.524662 0.657780 -1.424640
v -0.511773 0.720780 -1.386270
v -0.046102 0.720780 -1.459600
v -0.046102 0.657780 -1.500000
v -0.499075 0.752280 -1.348469
v -0.046102 0.752280 -1.419800
v -0.489632 0.752280 -1.320356
v -0.046102 0.752280 -1.390200
v -0.486505 0.720780 -1.311049
v -0.046102 0.720780 -1.380400
v -0.492758 0.657780 -1.329664
v -0.046102 0.657780 -1.400000
v -0.936982 0.657780 -1.213920
v -0.912988 0.720780 -1.181225
v -0.889350 0.752280 -1.149016
v -0.871770 0.752280 -1.125061
v -0.865950 0.720780 -1.117130
v -0.877590 0.657780 -1.132992
v -1.260022 0.657780 -0.890880
v -1.227327 0.720780 -0.866886
v -1.195118 0.752280 -0.843248
v -1.171163 0.752279 -0.825668
v -1.163232 0.720780 -0.819847
v -1.179094 0.657780 -0.831488
v -1.470742 0.657780 -0.478560
v -1.432372 0.720780 -0.465671
v -1.394572 0.752280 -0.452973
v -1.366459 0.752280 -0.443529
v -1.357151 0.720780 -0.440403
v -1.375766 0.657780 -0.446656
v 1.378538 0.657780 -0.478560
v 1.340167 0.720780 -0.465671
v 1.302367 0.752280 -0.452973
v 1.274254 0.752280 -0.443529
v 1.264946 0.720780 -0.440403
v 1.283562 0.657780 -0.446656
v 1.167818 0.657780 -0.890880
v 1.135123 0.720780 -0.866886
v 1.102913 0.752280 -0.843248
v 1.078959 0.752280 -0.825668
v 1.071028 0.720780 -0.819847
v 1.086890 0.657780 -0.831488
v 0.844778 0.657780 -1.213920
v 0.820783 0.720780 -1.181225
v 0.797145 0.752280 -1.149016
v 0.779565 0.752279 -1.125061
v 0.773745 0.720780 -1.117130
v 0.785386 0.657780 -1.132992
v 0.432458 0.657780 -1.424640
v 0.419568 0.720780 -1.386270
v 0.406871 0.752280 -1.348469
v 0.397427 0.752280 -1.320356
v 0.394300 0.720780 -1.311049
v 0.400554 0.657780 -1.329664
v 0.591978 -0.842220 1.899520
v 0.583045 -0.563820 1.872927
v -0.046102 -0.563820 1.972000
v -0.046102 -0.842220 2.000000
v 0.558797 -0.271021 1.800745
v -0.046102 -0.271021 1.896000
v 0.523065 0.032580 1.694372
v -0.046102 0.032580 1.784000
v 0.479676 0.343380 1.565205
v -0.046102 0.343380 1.648000
v 1.141738 -0.842220 1.618560
v 1.125108 -0.563820 1.595900
v 1.079970 -0.271021 1.534395
v 1.013451 0.032580 1.443756
v 0.932678 0.343380 1.333694
v 1.572458 -0.842220 1.187840
v 1.549798 -0.563820 1.171210
v 1.488292 -0.271020 1.126072
v 1.397653 0.032580 1.059553
v 1.287591 0.343380 0.978780
v 1.853418 -0.842220 0.638080
v 1.826825 -0.563820 0.629147
v 1.754643 -0.271020 0.604900
v 1.648270 0.032580 0.569167
v 1.519102 0.343380 0.525778
v 1.953898 -0.842220 -0.000000
v 1.925898 -0.563820 -0.000000
v 1.849898 -0.271021 -0.000000
v 1.737898 0.032580 -0.000000
v 1.601898 0.343380 -0.000000
v -1.945622 -0.842220 0.638080
v -1.919029 -0.563820 0.629147
v -2.018102 -0.563820 -0.000000
v -2.046102 -0.842220 -0.000000
v -1.846847 -0.271021 0.604900
v -1.942102 -0.271021 -0.000000
v -1.740474 0.032580 0.569167
v -1.830102 0.032580 -0.000000
v -1.611307 0.343380 0.525778
v -1.694102 0.343380 -0.000000
v -1.664662 -0.842220 1.187840
v -1.642003 -0.563820 1.171210
v -1.580497 -0.271021 1.126072
v -1.489858 0.032580 1.059553
v -1.379796 0.343380 0.978780
v -1.233942 -0.842220 1.618560
v -1.217313 -0.563820 1.595900
v -1.172175 -0.271020 1.534395
v -1.105656 0.032580 1.443756
v -1.024882 0.343380 1.333694
v -0.684182 -0.842220 1.899520
v -0.675249 -0.563820 1.872927
v -0.651002 -0.271020 1.800745
v -0.615270 0.032580 1.694372
v -0.571880 0.343380 1.565205
v -0.684182 -0.842220 -1.899520
v -0.675249 -0.563820 -1.872927
v -0.046102 -0.563820 -1.972000
v -0.046102 -0.842220 -2.000000
v -0.651002 -0.271021 -1.800745
v -0.046102 -0.271021 -1.896000
v -0.615270 0.032580 -1.694372
v -0.046102 0.032580 -1.784000
v -0.571880 0.343380 -1.565205
v -0.046102 0.343380 -1.648000
v -1.233942 -0.842220 -1.618560
v -1.217313 -0.563820 -1.595900
v -1.172175 -0.271021 -1.534395
v -1.105656 0.032580 -1.443756
v -1.024882 0.343380 -1.333694
v -1.664662 -0.842220 -1.187840
v -1.642002 -0.563820 -1.171210
v -1.580497 -0.271020 -1.126072
v -1.489858 0.032580 -1.059553
v -1.379796 0.343380 -0.978780
v -1.945622 -0.842220 -0.638080
v -1.919029 -0.563820 -0.629147
v -1.846847 -0.271020 -0.604900
v -1.740474 0.032580 -0.569167
v -1.611307 0.343380 -0.525778
v 1.853418 -0.842220 -0.638080
v 1.826825 -0.563820 -0.629147
v 1.754643 -0.271021 -0.604900
v 1.648270 0.032580 -0.569167
v 1.519102 0.343380 -0.525778
v 1.572458 -0.842220 -1.187840
v 1.549798 -0.563820 -1.171210
v 1.488293 -0.271021 -1.126072
v 1.397653 0.032580 -1.059553
v 1.287591 0.343380 -0.978780
v 1.141738 -0.842220 -1.618560
v 1.125108 -0.563820 -1.595900
v 1.079970 -0.271020 -1.534395
v 1.013451 0.032580 -1.443756
v 0.932678 0.343380 -1.333694
v 0.591978 -0.842220 -1.899520
v 0.583045 -0.563820 -1.872927
v 0.558797 -0.271020 -1.800745
v 0.523065 0.032580 -1.694372
v 0.479676 0.343380 -1.565205
v 0.449048 -1.528620 1.474028
v -0.046102 -1.528620 1.552000
v -0.046102 -1.592220 1.500000
v 0.488609 -1.425420 1.591798
v -0.046102 -1.425420 1.676000
v 0.535827 -1.279020 1.732362
v -0.046102 -1.279020 1.824000
v 0.575388 -1.085820 1.850133
v -0.046102 -1.085820 1.948000
v 0.844778 -1.592220 1.213920
v 0.875661 -1.528620 1.256003
v 0.949308 -1.425420 1.356353
v 1.037208 -1.279020 1.476127
v 1.110854 -1.085820 1.576478
v 1.167818 -1.592220 0.890880
v 1.209900 -1.528620 0.921764
v 1.310251 -1.425420 0.995410
v 1.430024 -1.279020 1.083310
v 1.530375 -1.085820 1.156956
v 1.378538 -1.592220 0.478560
v 1.427925 -1.528620 0.495150
v 1.545695 -1.425420 0.534711
v 1.686260 -1.279020 0.581929
v 1.804030 -1.085820 0.621490
v 1.453898 -1.592220 -0.000000
v 1.505898 -1.528620 -0.000000
v 1.629898 -1.425420 -0.000000
v 1.777898 -1.279020 -0.000000
v 1.901898 -1.085820 -0.000000
v -1.470742 -1.592220 0.478560
v -1.520130 -1.528620 0.495150
v -1.598102 -1.528620 -0.000000
v -1.546102 -1.592220 -0.000000
v -1.637900 -1.425420 0.534711
v -1.722102 -1.425420 -0.000000
v -1.778465 -1.279020 0.581929
v -1.870102 -1.279020 -0.000000
v -1.896235 -1.085820 0.621490
v -1.994102 -1.085820 -0.000000
v -1.260022 -1.592220 0.890880
v -1.302105 -1.528620 0.921764
v -1.402456 -1.425420 0.995410
v -1.522229 -1.279020 1.083310
v -1.622580 -1.085820 1.156956
v -0.936982 -1.592220 1.213920
v -0.967866 -1.528620 1.256003
v -1.041512 -1.425420 1.356353
v -1.129412 -1.279020 1.476127
v -1.203058 -1.085820 1.576477
v -0.524662 -1.592220 1.424640
v -0.541252 -1.528620 1.474028
v -0.580813 -1.425420 1.591798
v -0.628031 -1.279020 1.732362
v -0.667592 -1.085820 1.850133
v -0.524662 -1.592220 -1.424640
v -0.541252 -1.528620 -1.474028
v -0.046102 -1.528620 -1.552000
v -0.046102 -1.592220 -1.500000
v -0.580813 -1.425420 -1.591798
v -0.046102 -1.425420 -1.676000
v -0.628031 -1.279020 -1.732362
v -0.046102 -1.279020 -1.824000
v -0.667592 -1.085820 -1.850133
v -0.046102 -1.085820 -1.948000
v -0.936982 -1.592220 -1.213920
v -0.967866 -1.528620 -1.256003
v -1.041512 -1.425420 -1.356353
v -1.129412 -1.279020 -1.476127
v -1.203058 -1.085820 -1.576478
v -1.260022 -1.592220 -0.890880
v -1.302105 -1.528620 -0.921764
v -1.402456 -1.425420 -0.995410
v -1.522229 -1.279020 -1.083310
v -1.622580 -1.085820 -1.156956
v -1.520130 -1.528620 -0.495150
v -1.637900 -1.425420 -0.534711
v -1.778465 -1.279020 -0.581929
v -1.896235 -1.085820 -0.621490
v 1.378538 -1.592220 -0.478560
v 1.427925 -1.528620 -0.495150
v 1.545695 -1.425420 -0.534711
v 1.686260 -1.279020 -0.581929
v 1.804030 -1.085820 -0.621490
v 1.167818 -1.592220 -0.890880
v 1.209900 -1.528620 -0.921764
v 1.310251 -1.425420 -0.995410
v 1.430024 -1.279020 -1.083310
v 1.530375 -1.085820 -1.156956
v 0.844778 -1.592220 -1.213920
v 0.875661 -1.528620 -1.256003
v 0.949308 -1.425420 -1.356353
v 1.037208 -1.279020 -1.476127
v 1.110854 -1.085820 -1.576477
v 0.432458 -1.592220 -1.424640
v 0.449048 -1.528620 -1.474028
v 0.488609 -1.425420 -1.591798
v 0.535827 -1.279020 -1.732362
v 0.575388 -1.085820 -1.850133
v -3.014902 0.057780 0.144000
v -2.956234 0.265960 0.144000
v -2.986102 0.277380 -0.000000
v -3.046102 0.057780 -0.000000
v -2.780560 0.392234 0.144000
v -2.806102 0.410579 -0.000000
v -2.488381 0.457078 0.144000
v -2.506102 0.478980 -0.000000
v -2.080195 0.480967 0.144000
v -2.086102 0.504180 -0.000000
v -1.556502 0.484380 0.144000
v -1.546102 0.507780 -0.000000
v -2.940502 0.057780 0.216000
v -2.885008 0.238730 0.216000
v -2.719651 0.348487 0.216000
v -2.446121 0.404849 0.216000
v -2.066109 0.425613 0.216000
v -1.581302 0.428580 0.216000
v -2.851702 0.057780 0.216000
v -2.799997 0.206229 0.216000
v -2.646954 0.296273 0.216000
v -2.395683 0.342511 0.216000
v -2.049296 0.359546 0.216000
v -1.610902 0.361980 0.216000
v -2.777302 0.057780 0.144000
v -2.728771 0.178999 0.144000
v -2.586045 0.252525 0.144000
v -2.353424 0.290282 0.144000
v -2.035210 0.304193 0.144000
v -1.635702 0.306180 0.144000
v -2.746102 0.057780 -0.000000
v -2.698902 0.167580 -0.000000
v -2.560502 0.234180 -0.000000
v -2.335702 0.268380 -0.000000
v -2.029302 0.280980 -0.000000
v -1.646102 0.282780 -0.000000
v -2.777302 0.057780 -0.144000
v -2.728771 0.178999 -0.144000
v -2.586045 0.252525 -0.144000
v -2.353424 0.290282 -0.144000
v -2.035210 0.304193 -0.144000
v -1.635702 0.306180 -0.144000
v -2.851702 0.057780 -0.216000
v -2.799997 0.206229 -0.216000
v -2.646954 0.296273 -0.216000
v -2.395683 0.342511 -0.216000
v -2.049296 0.359546 -0.216000
v -1.610902 0.361980 -0.216000
v -2.940502 0.057780 -0.216000
v -2.885008 0.238730 -0.216000
v -2.719651 0.348487 -0.216000
v -2.446122 0.404849 -0.216000
v -2.066109 0.425613 -0.216000
v -1.581302 0.428580 -0.216000
v -3.014902 0.057780 -0.144000
v -2.956234 0.265960 -0.144000
v -2.780560 0.392234 -0.144000
v -2.488381 0.457078 -0.144000
v -2.080195 0.480967 -0.144000
v -1.556502 0.484380 -0.144000
v -1.956502 -1.111020 0.144000
v -2.344592 -0.905312 0.144000
v -2.348502 -0.931020 -0.000000
v -1.946102 -1.142220 -0.000000
v -2.641827 -0.681718 0.144000
v -2.657302 -0.703620 -0.000000
v -2.850857 -0.444099 0.144000
v -2.874902 -0.461820 -0.000000
v -2.974333 -0.196313 0.144000
v -3.003702 -0.207420 -0.000000
v -1.981302 -1.036620 0.216000
v -2.335267 -0.844006 0.216000
v -2.604925 -0.629489 0.216000
v -2.793520 -0.401840 0.216000
v -2.904298 -0.169827 0.216000
v -2.010902 -0.947820 0.216000
v -2.324138 -0.770835 0.216000
v -2.560880 -0.567152 0.216000
v -2.725085 -0.351401 0.216000
v -2.820707 -0.138214 0.216000
v -2.035702 -0.873420 0.144000
v -2.314813 -0.709529 0.144000
v -2.523978 -0.514923 0.144000
v -2.667747 -0.309142 0.144000
v -2.750672 -0.111727 0.144000
v -2.310902 -0.683820 -0.000000
v -2.508502 -0.493020 -0.000000
v -2.643703 -0.291420 -0.000000
v -2.721302 -0.100620 -0.000000
v -2.035702 -0.873420 -0.144000
v -2.314813 -0.709529 -0.144000
v -2.523978 -0.514923 -0.144000
v -2.667747 -0.309142 -0.144000
v -2.750672 -0.111727 -0.144000
v -2.010902 -0.947820 -0.216000
v -2.324137 -0.770835 -0.216000
v -2.560880 -0.567152 -0.216000
v -2.725085 -0.351401 -0.216000
v -2.820707 -0.138214 -0.216000
v -1.981302 -1.036620 -0.216000
v -2.335267 -0.844006 -0.216000
v -2.604924 -0.629489 -0.216000
v -2.793520 -0.401839 -0.216000
v -2.904298 -0.169827 -0.216000
v -1.956502 -1.111020 -0.144000
v -2.344592 -0.905312 -0.144000
v -2.641827 -0.681718 -0.144000
v -2.850857 -0.444099 -0.144000
v -2.974333 -0.196313 -0.144000
v 3.191498 0.657780 0.120000
v 2.835363 0.357852 0.140467
v 2.876298 0.348180 -0.000000
v 3.253898 0.657780 -0.000000
v 2.672150 -0.046188 0.189274
v 2.705098 -0.073020 -0.000000
v 2.533245 -0.471684 0.247526
v 2.562698 -0.519420 -0.000000
v 2.250032 -0.835980 0.296333
v 2.271498 -0.904620 -0.000000
v 1.653898 -1.056420 0.316800
v 1.653898 -1.142220 -0.000000
v 3.042698 0.657780 0.180000
v 2.737751 0.380916 0.210701
v 2.593584 0.017796 0.283910
v 2.463011 -0.357852 0.371290
v 2.198845 -0.672300 0.444499
v 1.653898 -0.851820 0.475200
v 2.865098 0.657780 0.180000
v 2.621245 0.408444 0.210701
v 2.499811 0.094164 0.283910
v 2.379184 -0.221988 0.371290
v 2.137751 -0.476940 0.444499
v 1.653898 -0.607620 0.475200
v 2.716298 0.657780 0.120000
v 2.523632 0.431508 0.140467
v 2.421245 0.158148 0.189274
v 2.308951 -0.108156 0.247526
v 2.086564 -0.313260 0.296333
v 1.653898 -0.403021 0.316800
v 2.653898 0.657780 -0.000000
v 2.482698 0.441180 -0.000000
v 2.388298 0.184979 -0.000000
v 2.279498 -0.060421 -0.000000
v 2.065098 -0.244621 -0.000000
v 1.653898 -0.317220 -0.000000
v 2.716298 0.657780 -0.120000
v 2.523632 0.431508 -0.140467
v 2.421245 0.158148 -0.189274
v 2.308950 -0.108156 -0.247526
v 2.086563 -0.313260 -0.296333
v 1.653898 -0.403020 -0.316800
v 2.865098 0.657780 -0.180000
v 2.621245 0.408444 -0.210701
v 2.499811 0.094164 -0.283910
v 2.379184 -0.221988 -0.371290
v 2.137751 -0.476941 -0.444499
v 1.653898 -0.607620 -0.475200
v 3.042698 0.657780 -0.180000
v 2.737751 0.380916 -0.210701
v 2.593584 0.017796 -0.283910
v 2.463012 -0.357852 -0.371290
v 2.198845 -0.672300 -0.444499
v 1.653898 -0.851820 -0.475200
v 3.191498 0.657780 -0.120000
v 2.835364 0.357852 -0.140467
v 2.672151 -0.046188 -0.189274
v 2.533245 -0.471684 -0.247526
v 2.250032 -0.835980 -0.296333
v 1.653898 -1.056420 -0.316800
v 3.112298 0.657780 0.072000
v 3.230896 0.708295 0.076992
v 3.281898 0.709980 -0.000000
v 3.153898 0.657780 -0.000000
v 3.302493 0.731133 0.088896
v 3.361898 0.733380 -0.000000
v 3.322711 0.728714 0.103104
v 3.387898 0.730680 -0.000000
v 3.287172 0.703457 0.115008
v 3.353898 0.704580 -0.000000
v 3.013098 0.657780 0.108000
v 3.109277 0.704277 0.115488
v 3.160836 0.725776 0.133344
v 3.167264 0.724027 0.154656
v 3.128055 0.700778 0.172512
v 2.894698 0.657780 0.108000
v 2.964119 0.699482 0.115488
v 2.991760 0.719383 0.133344
v 2.981731 0.718432 0.154656
v 2.938141 0.697582 0.172512
v 2.795498 0.657780 0.072000
v 2.842499 0.695465 0.076992
v 2.850103 0.714026 0.088896
v 2.826285 0.713745 0.103104
v 2.779024 0.694903 0.115008
v 2.753898 0.657780 -0.000000
v 2.791498 0.693780 -0.000000
v 2.790698 0.711780 -0.000000
v 2.761098 0.711780 -0.000000
v 2.712298 0.693780 -0.000000
v 2.795498 0.657780 -0.072000
v 2.842499 0.695464 -0.076992
v 2.850103 0.714026 -0.088896
v 2.826285 0.713745 -0.103104
v 2.779024 0.694903 -0.115008
v 2.894698 0.657780 -0.108000
v 2.964118 0.699482 -0.115488
v 2.991760 0.719383 -0.133344
v 2.981731 0.718432 -0.154656
v 2.938141 0.697582 -0.172512
v 3.013098 0.657780 -0.108000
v 3.109277 0.704278 -0.115488
v 3.160836 0.725777 -0.133344
v 3.167264 0.724027 -0.154656
v 3.128055 0.700778 -0.172512
v 3.112298 0.657780 -0.072000
v 3.230896 0.708295 -0.076992
v 3.302493 0.731133 -0.088896
v 3.322711 0.728714 -0.103104
v 3.287171 0.703457 -0.115008
v 0.017706 0.957780 0.189952
v 0.011143 1.062180 0.170215
v -0.046102 1.062180 0.179200
v -0.046102 0.957780 0.200000
v 0.041408 1.180979 0.259910
v -0.046102 1.180979 0.273600
v 0.068573 1.292580 0.340477
v -0.046102 1.292580 0.358400
v 0.052712 1.375380 0.293360
v -0.046102 1.375380 0.308800
v -0.046102 1.407780 -0.000000
v 0.072682 0.957780 0.161856
v 0.060411 1.062180 0.145078
v 0.116643 1.180979 0.221585
v 0.167132 1.292580 0.290295
v 0.137632 1.375380 0.250127
v 0.115754 0.957780 0.118784
v 0.098976 1.062180 0.106513
v 0.175483 1.180980 0.162745
v 0.244192 1.292580 0.213234
v 0.204025 1.375380 0.183734
v 0.143850 0.957780 0.063808
v 0.124113 1.062180 0.057246
v 0.213807 1.180979 0.087511
v 0.294375 1.292580 0.114676
v 0.247257 1.375380 0.098814
v 0.153898 0.957780 -0.000000
v 0.133098 1.062180 -0.000000
v 0.227498 1.180979 -0.000000
v 0.312298 1.292580 -0.000000
v 0.262698 1.375380 -0.000000
v -0.236054 0.957780 0.063808
v -0.216318 1.062180 0.057246
v -0.225302 1.062180 -0.000000
v -0.246102 0.957780 -0.000000
v -0.306012 1.180979 0.087511
v -0.319702 1.180979 -0.000000
v -0.386579 1.292580 0.114676
v -0.404502 1.292580 -0.000000
v -0.339462 1.375380 0.098814
v -0.354902 1.375380 -0.000000
v -0.207958 0.957780 0.118784
v -0.191181 1.062180 0.106513
v -0.267687 1.180979 0.162745
v -0.336397 1.292580 0.213234
v -0.296229 1.375380 0.183734
v -0.164886 0.957780 0.161856
v -0.152616 1.062180 0.145078
v -0.208848 1.180980 0.221585
v -0.259336 1.292580 0.290295
v -0.229837 1.375380 0.250127
v -0.109910 0.957780 0.189952
v -0.103348 1.062180 0.170215
v -0.133613 1.180979 0.259910
v -0.160778 1.292580 0.340477
v -0.144917 1.375380 0.293360
v -0.109910 0.957780 -0.189952
v -0.103348 1.062180 -0.170215
v -0.046102 1.062180 -0.179200
v -0.046102 0.957780 -0.200000
v -0.133613 1.180979 -0.259910
v -0.046102 1.180979 -0.273600
v -0.160778 1.292580 -0.340477
v -0.046102 1.292580 -0.358400
v -0.144917 1.375380 -0.293360
v -0.046102 1.375380 -0.308800
v -0.164886 0.957780 -0.161856
v -0.152616 1.062180 -0.145078
v -0.208848 1.180979 -0.221585
v -0.259337 1.292580 -0.290295
v -0.229837 1.375380 -0.250127
v -0.207958 0.957780 -0.118784
v -0.191181 1.062180 -0.106513
v -0.267687 1.180980 -0.162745
v -0.336397 1.292580 -0.213234
v -0.296229 1.375380 -0.183734
v -0.236054 0.957780 -0.063808
v -0.216318 1.062180 -0.057246
v -0.306012 1.180979 -0.087511
v -0.386579 1.292580 -0.114676
v -0.339462 1.375380 -0.098814
v 0.143850 0.957780 -0.063808
v 0.124113 1.062180 -0.057246
v 0.213807 1.180979 -0.087511
v 0.294375 1.292580 -0.114676
v 0.247257 1.375380 -0.098814
v 0.115754 0.957780 -0.118784
v 0.098976 1.062180 -0.106513
v 0.175483 1.180979 -0.162745
v 0.244192 1.292580 -0.213234
v 0.204025 1.375380 -0.183734
v 0.072682 0.957780 -0.161856
v 0.060411 1.062180 -0.145078
v 0.116643 1.180980 -0.221585
v 0.167132 1.292580 -0.290295
v 0.137632 1.375380 -0.250127
v 0.017706 0.957780 -0.189952
v 0.011143 1.062180 -0.170215
v 0.041408 1.180979 -0.259910
v 0.068573 1.292580 -0.340477
v 0.052712 1.375380 -0.293360
v 0.368650 0.657780 1.234688
v 0.338277 0.732180 1.144271
v -0.046102 0.732180 1.204800
v -0.046102 0.657780 1.300000
v 0.263494 0.784980 0.921647
v -0.046102 0.784980 0.970400
v 0.168803 0.830580 0.639758
v -0.046102 0.830580 0.673600
v 0.078706 0.883380 0.371546
v -0.046102 0.883380 0.391200
v 0.725994 0.657780 1.052064
v 0.669453 0.732180 0.975021
v 0.530238 0.784980 0.785325
v 0.353962 0.830580 0.545131
v 0.186239 0.883380 0.316590
v 1.005962 0.657780 0.772096
v 0.928918 0.732180 0.715555
v 0.739223 0.784980 0.576340
v 0.499029 0.830580 0.400064
v 0.270488 0.883380 0.232341
v 1.188586 0.657780 0.414752
v 1.098169 0.732180 0.384379
v 0.875545 0.784980 0.309596
v 0.593656 0.830580 0.214905
v 0.325444 0.883380 0.124808
v 1.253898 0.657780 -0.000000
v 1.158698 0.732180 -0.000000
v 0.924298 0.784980 -0.000000
v 0.627498 0.830580 -0.000000
v 0.345098 0.883380 -0.000000
v -1.280790 0.657780 0.414752
v -1.190373 0.732180 0.384379
v -1.250902 0.732180 -0.000000
v -1.346102 0.657780 -0.000000
v -0.967749 0.784980 0.309596
v -1.016502 0.784980 -0.000000
v -0.685861 0.830580 0.214905
v -0.719702 0.830580 -0.000000
v -0.417648 0.883380 0.124808
v -0.437302 0.883380 -0.000000
v -1.098166 0.657780 0.772096
v -1.021123 0.732180 0.715555
v -0.831428 0.784980 0.576340
v -0.591233 0.830580 0.400065
v -0.362693 0.883380 0.232341
v -0.818198 0.657780 1.052064
v -0.761657 0.732180 0.975021
v -0.622442 0.784980 0.785325
v -0.446167 0.830580 0.545131
v -0.278444 0.883380 0.316590
v -0.460854 0.657780 1.234688
v -0.430482 0.732180 1.144271
v -0.355699 0.784980 0.921647
v -0.261008 0.830580 0.639758
v -0.170911 0.883380 0.371546
v -0.460854 0.657780 -1.234688
v -0.430482 0.732180 -1.144271
v -0.046102 0.732180 -1.204800
v -0.046102 0.657780 -1.300000
v -0.355699 0.784980 -0.921647
v -0.046102 0.784980 -0.970400
v -0.261008 0.830580 -0.639758
v -0.046102 0.830580 -0.673600
v -0.170911 0.883380 -0.371546
v -0.046102 0.883380 -0.391200
v -0.818198 0.657780 -1.052064
v -0.761657 0.732180 -0.975021
v -0.622442 0.784980 -0.785325
v -0.446167 0.830580 -0.545131
v -0.278444 0.883380 -0.316590
v -1.098166 0.657780 -0.772096
v -1.021123 0.732180 -0.715555
v -0.831428 0.784980 -0.576340
v -0.591233 0.830580 -0.400064
v -0.362693 0.883380 -0.232342
v -1.280790 0.657780 -0.414752
v -1.190373 0.732180 -0.384379
v -0.967749 0.784980 -0.309596
v -0.685861 0.830580 -0.214905
v -0.417648 0.883380 -0.124808
v 1.188586 0.657780 -0.414752
v 1.098169 0.732180 -0.384379
v 0.875545 0.784980 -0.309596
v 0.593656 0.830580 -0.214905
v 0.325444 0.883380 -0.124808
v 1.005962 0.657780 -0.772096
v 0.928918 0.732180 -0.715555
v 0.739223 0.784980 -0.576340
v 0.499029 0.830580 -0.400065
v 0.270488 0.883380 -0.232342
v 0.725994 0.657780 -1.052064
v 0.669452 0.732180 -0.975021
v 0.530238 0.784980 -0.785325
v 0.353962 0.830580 -0.545131
v 0.186239 0.883380 -0.316590
v 0.368650 0.657780 -1.234688
v 0.338277 0.732180 -1.144271
v 0.263494 0.784980 -0.921647
v 0.168803 0.830580 -0.639758
v 0.078706 0.883380 -0.371546
v 0.426332 -1.636620 -1.406404
v -0.046102 -1.636620 -1.480800
v 0.394939 -1.677420 -1.312948
v -0.046102 -1.677420 -1.382400
v 0.318752 -1.711020 -1.086146
v -0.046102 -1.711020 -1.143600
v 0.178247 -1.733820 -0.667871
v -0.046102 -1.733820 -0.703200
v -0.046102 -1.742220 -0.000000
v 0.833374 -1.636620 -1.198382
v 0.774933 -1.677420 -1.118749
v 0.633105 -1.711020 -0.925493
v 0.371542 -1.733820 -0.569086
v 1.152280 -1.636620 -0.879477
v 1.072646 -1.677420 -0.821035
v 0.879390 -1.711020 -0.679207
v 0.522983 -1.733820 -0.417645
v 1.360302 -1.636620 -0.472434
v 1.266846 -1.677420 -0.441041
v 1.040043 -1.711020 -0.364854
v 0.621769 -1.733820 -0.224349
v 1.434698 -1.636620 -0.000000
v 1.336298 -1.677420 -0.000000
v 1.097498 -1.711020 -0.000000
v 0.657098 -1.733820 -0.000000
v -1.470742 -1.592220 -0.478560
v -1.452507 -1.636620 -0.472434
v -1.526902 -1.636620 -0.000000
v -1.359050 -1.677420 -0.441041
v -1.428502 -1.677420 -0.000000
v -1.132248 -1.711020 -0.364854
v -1.189702 -1.711020 -0.000000
v -0.713974 -1.733820 -0.224349
v -0.749302 -1.733820 -0.000000
v -1.244484 -1.636620 -0.879477
v -1.164851 -1.677420 -0.821035
v -0.971595 -1.711020 -0.679207
v -0.615188 -1.733820 -0.417645
v -0.925579 -1.636620 -1.198382
v -0.867137 -1.677420 -1.118749
v -0.725309 -1.711020 -0.925493
v -0.463747 -1.733820 -0.569086
v -0.518537 -1.636620 -1.406404
v -0.487143 -1.677420 -1.312948
v -0.410956 -1.711020 -1.086146
v -0.270451 -1.733820 -0.667871
v -0.518537 -1.636620 1.406404
v -0.046102 -1.636620 1.480800
v -0.487143 -1.677420 1.312948
v -0.046102 -1.677420 1.382400
v -0.410956 -1.711020 1.086146
v -0.046102 -1.711020 1.143600
v -0.270451 -1.733820 0.667871
v -0.046102 -1.733820 0.703200
v -0.925579 -1.636620 1.198382
v -0.867137 -1.677420 1.118749
v -0.725309 -1.711020 0.925493
v -0.463747 -1.733820 0.569086
v -1.244484 -1.636620 0.879477
v -1.164851 -1.677420 0.821035
v -0.971595 -1.711020 0.679207
v -0.615188 -1.733820 0.417645
v -1.452507 -1.636620 0.472434
v -1.359050 -1.677420 0.441041
v -1.132248 -1.711020 0.364854
v -0.713974 -1.733820 0.224349
v 1.360302 -1.636620 0.472434
v 1.266846 -1.677420 0.441041
v 1.040043 -1.711020 0.364854
v 0.621769 -1.733820 0.224349
v 1.152280 -1.636620 0.879477
v 1.072646 -1.677420 0.821035
v 0.879390 -1.711020 0.679207
v 0.522983 -1.733820 0.417645
v 0.833374 -1.636620 1.198382
v 0.774933 -1.677420 1.118749
v 0.633105 -1.711020 0.925493
v 0.371542 -1.733820 0.569086
v 0.432458 -1.592220 1.424640
v 0.426332 -1.636620 1.406404
v 0.394939 -1.677420 1.312948
v 0.318752 -1.711020 1.086146
v 0.178247 -1.733820 0.667871
vn -0.8345 0.5351 0.1314
vn -0.6177 0.7804 0.0973
vn -0.0000 1.0000 -0.0000
vn 0.9442 0.2938 -0.1487
vn 0.9442 -0.2938 -0.1487
vn 0.3841 0.5363 -0.7516
vn -0.2818 0.7852 0.5514
vn 0.4349 0.2946 -0.8509
vn 0.8509 -0.2946 -0.4349
vn -0.5966 0.5368 -0.5966
vn -0.4409 0.7818 -0.4409
vn 0.6756 0.2950 -0.6756
vn 0.6756 0.2950 0.6756
vn -0.7516 0.5363 -0.3841
vn 0.5557 0.7814 -0.2840
vn 0.5956 0.4351 0.6753
vn 0.8509 0.2946 0.4349
vn 0.8509 -0.2946 0.4349
vn -0.8345 0.5351 -0.1314
vn -0.0973 0.7804 0.6177
vn 0.1487 0.2938 -0.9442
vn 0.1487 -0.2938 -0.9442
vn 0.8345 0.5351 -0.1314
vn -0.0973 0.7804 -0.6177
vn 0.1487 0.2938 0.9442
vn 0.1487 -0.2938 0.9442
vn 0.7516 0.5363 -0.3841
vn 0.2840 0.7814 -0.5557
vn -0.8509 0.2946 0.4349
vn 0.4349 -0.2946 0.8509
vn 0.5966 0.5368 -0.5966
vn -0.4375 0.7856 -0.4375
vn -0.6756 0.2950 0.6756
vn 0.6756 -0.2950 0.6756
vn -0.3840 -0.5366 -0.7514
vn -0.5557 0.7814 -0.2840
vn -0.4349 0.2946 0.8509
vn 0.4349 0.2946 0.8509
vn 0.1314 0.5351 0.8345
vn 0.0973 0.7804 -0.6177
vn 0.6582 -0.2447 0.7119
vn 0.9442 0.2938 0.1487
vn 0.9442 -0.2938 0.1487
vn -0.1314 0.5351 0.8345
vn 0.6177 0.7804 -0.0973
vn -0.9442 0.2938 0.1487
vn -0.9442 -0.2938 0.1487
vn -0.3841 0.5363 0.7516
vn -0.2840 0.7814 0.5557
vn 0.8509 0.2946 -0.4349
vn -0.8509 -0.2946 0.4349
vn 0.5964 -0.5372 0.5964
vn -0.4409 0.7818 0.4409
vn -0.9421 0.2613 0.2101
vn -0.6756 -0.2950 0.6756
vn -0.3841 0.5363 -0.7516
vn 0.5557 0.7814 0.2840
vn -0.9442 -0.2938 -0.1487
vn 0.4349 -0.2946 -0.8509
vn 0.1314 0.5351 -0.8345
vn 0.6177 0.7804 0.0973
vn -0.1487 0.2938 0.9442
vn -0.1487 -0.2938 0.9442
vn 0.8345 0.5351 0.1314
vn -0.6177 0.7804 -0.0973
vn -0.9442 0.2938 -0.1487
vn -0.1487 0.2938 -0.9442
vn 0.3841 0.5363 0.7516
vn -0.5557 0.7814 0.2840
vn -0.4349 0.2946 -0.8509
vn -0.4349 -0.2946 0.8509
vn 0.5966 0.5368 0.5966
vn 0.4409 0.7818 0.4409
vn -0.1364 0.9882 0.0697
vn -0.6756 -0.2950 -0.6756
vn -0.6756 0.2950 -0.6756
vn 0.7516 0.5363 0.3841
vn 0.2840 0.7814 0.5557
vn -0.8509 0.2946 -0.4349
vn -0.8509 -0.2946 -0.4349
vn 0.1314 -0.5355 0.8343
vn 0.5035 0.8497 -0.1566
vn 0.3463 -0.9068 -0.2405
vn -0.1487 -0.2938 -0.9442
vn -0.9830 0.0989 0.1548
vn -0.7334 -0.6526 0.1904
vn -0.9281 0.3424 -0.1462
vn 0.9067 0.3968 -0.1428
vn -0.8957 0.4217 0.1411
vn -0.8861 0.0992 -0.4528
vn -0.4407 0.2491 -0.8624
vn 0.8363 0.3433 -0.4274
vn -0.1774 0.9528 -0.2462
vn 0.8070 0.4227 -0.4124
vn 0.4528 0.0992 -0.8861
vn -0.6848 0.2494 0.6848
vn -0.6640 0.3437 0.6640
vn -0.6486 0.3983 -0.6486
vn -0.6407 0.4232 -0.6407
vn 0.1548 0.0989 -0.9830
vn -0.4407 0.2491 0.8624
vn 0.4274 0.3433 -0.8363
vn -0.4175 0.3978 0.8170
vn -0.4124 0.4227 0.8070
vn -0.1548 0.0989 0.9830
vn -0.1507 0.2484 0.9569
vn 0.1462 0.3424 -0.9281
vn -0.1428 0.3968 0.9067
vn -0.1411 0.4217 0.8957
vn -0.9830 0.0989 -0.1548
vn 0.1507 0.2484 0.9569
vn -0.1462 0.3424 0.9281
vn -0.1428 0.3968 -0.9067
vn -0.8957 0.4216 -0.1411
vn 0.4528 0.0992 0.8861
vn -0.8624 0.2491 -0.4407
vn -0.8363 0.3433 -0.4274
vn 0.4175 0.3978 -0.8170
vn -0.4124 0.4227 -0.8070
vn 0.7036 0.0993 0.7036
vn -0.9657 -0.1543 -0.2090
vn -0.4274 0.3433 -0.8363
vn -0.4183 -0.3939 0.8185
vn 0.6407 0.4232 0.6407
vn 0.8861 0.0992 -0.4528
vn -0.9569 0.2484 -0.1507
vn 0.8104 0.5550 0.1876
vn 0.8170 0.3978 -0.4175
vn -0.1411 0.4217 -0.8957
vn 0.6938 0.1930 0.6938
vn -0.1507 0.2484 -0.9569
vn -0.1462 0.3424 -0.9281
vn 0.1428 0.3968 -0.9067
vn -0.0584 0.9855 0.1592
vn 0.1548 0.0989 0.9830
vn 0.9569 0.2484 -0.1507
vn 0.1462 0.3424 0.9281
vn -0.9067 0.3968 -0.1428
vn 0.8957 0.4217 -0.1411
vn -0.8861 0.0992 0.4528
vn 0.8624 0.2491 -0.4407
vn 0.4274 0.3433 0.8363
vn -0.8170 0.3978 -0.4175
vn 0.4124 0.4227 -0.8070
vn -0.7036 0.0993 0.7036
vn 0.6848 0.2494 -0.6848
vn 0.6640 0.3437 -0.6640
vn -0.6486 0.3983 0.6486
vn 0.4124 0.4227 0.8070
vn 0.8861 0.0992 0.4528
vn 0.4407 0.2491 -0.8624
vn 0.8363 0.3433 0.4274
vn 0.8170 0.3978 0.4175
vn 0.8070 0.4227 0.4124
vn 0.9830 0.0989 0.1548
vn 0.1507 0.2484 -0.9569
vn 0.9281 0.3424 0.1462
vn 0.9067 0.3968 0.1428
vn 0.1411 0.4216 -0.8957
vn -0.1548 0.0989 -0.9830
vn -0.9569 0.2484 0.1507
vn -0.9281 0.3424 0.1462
vn -0.9067 0.3968 0.1428
vn 0.1411 0.4217 0.8957
vn -0.4528 0.0992 -0.8861
vn -0.8624 0.2491 0.4407
vn -0.8363 0.3433 0.4274
vn -0.8170 0.3978 0.4175
vn -0.8070 0.4227 0.4124
vn -0.7036 0.0993 -0.7036
vn 0.6848 0.2494 0.6848
vn 0.6640 0.3437 0.6640
vn 0.6486 0.3983 0.6486
vn -0.6407 0.4232 0.6407
vn -0.4528 0.0992 0.8861
vn 0.8624 0.2491 0.4407
vn -0.4274 0.3433 0.8363
vn 0.4175 0.3978 0.8170
vn -0.8070 0.4227 -0.4124
vn 0.9830 0.0989 -0.1548
vn 0.9569 0.2484 0.1507
vn -0.0065 0.9871 0.1597
vn 0.6407 0.4232 -0.6407
vn 0.8957 0.4216 0.1411
vn -0.7685 -0.6283 0.1210
vn -0.6365 -0.7648 0.1002
vn -0.6990 -0.7066 0.1101
vn -0.1314 -0.5355 0.8343
vn -0.1522 -0.2063 0.9666
vn 0.3536 -0.6295 -0.6919
vn -0.5727 -0.7657 0.2927
vn -0.3215 -0.7077 -0.6291
vn 0.6785 0.7161 0.1640
vn -0.8712 -0.2069 0.4452
vn 0.5491 -0.6300 -0.5491
vn -0.4544 -0.7662 0.4544
vn 0.4992 -0.7082 -0.4992
vn -0.5964 -0.5372 0.5964
vn -0.6918 -0.2072 -0.6918
vn -0.6919 -0.6295 -0.3536
vn -0.5727 -0.7657 -0.2927
vn -0.6291 -0.7077 -0.3215
vn -0.7514 -0.5366 0.3840
vn -0.8712 -0.2069 -0.4452
vn -0.7685 -0.6283 -0.1210
vn -0.6365 -0.7648 -0.1002
vn -0.6990 -0.7066 -0.1101
vn -0.8343 -0.5355 -0.1314
vn -0.9666 -0.2063 -0.1522
vn 0.7685 -0.6283 -0.1210
vn 0.6365 -0.7648 -0.1002
vn -0.1101 -0.7066 0.6990
vn 0.8343 -0.5355 -0.1314
vn 0.9666 -0.2063 -0.1522
vn 0.6919 -0.6295 -0.3536
vn 0.5727 -0.7657 -0.2927
vn 0.6291 -0.7077 -0.3215
vn -0.7514 -0.5366 -0.3840
vn 0.8712 -0.2069 -0.4452
vn -0.5491 -0.6300 -0.5491
vn -0.4544 -0.7662 -0.4544
vn -0.3215 -0.7077 0.6291
vn -0.5964 -0.5372 -0.5964
vn 0.6918 -0.2072 0.6918
vn -0.3536 -0.6295 -0.6919
vn -0.2927 -0.7657 -0.5727
vn -0.6291 -0.7077 0.3215
vn 0.7514 -0.5366 0.3840
vn 0.8712 -0.2069 0.4452
vn 0.1210 -0.6283 0.7685
vn 0.6365 -0.7648 0.1002
vn -0.1101 -0.7066 -0.6990
vn -0.8343 -0.5355 0.1314
vn 0.9666 -0.2063 0.1522
vn -0.1210 -0.6283 0.7685
vn 0.1002 -0.7648 0.6365
vn 0.6990 -0.7066 -0.1101
vn 0.1314 -0.5355 -0.8343
vn -0.9666 -0.2063 0.1522
vn 0.1235 -0.6004 0.7901
vn 0.4409 0.7818 -0.4409
vn 0.6291 -0.7077 0.3215
vn -0.3840 -0.5366 0.7514
vn 0.1522 -0.2063 -0.9666
vn 0.5491 -0.6300 0.5491
vn 0.4544 -0.7662 -0.4544
vn -0.4992 -0.7082 0.4992
vn 0.5964 -0.5372 -0.5964
vn 0.6918 -0.2072 -0.6918
vn -0.3536 -0.6295 0.6919
vn 0.2927 -0.7657 0.5727
vn 0.3215 -0.7077 -0.6291
vn 0.7514 -0.5366 -0.3840
vn 0.4452 -0.2069 0.8712
vn 0.1210 -0.6283 -0.7685
vn 0.1002 -0.7648 -0.6365
vn 0.1101 -0.7066 0.6990
vn -0.1314 -0.5355 -0.8343
vn -0.8744 -0.4393 -0.2061
vn -0.5783 0.7927 0.1932
vn -0.1002 -0.7648 0.6365
vn -0.4603 -0.8728 0.1621
vn 0.8343 -0.5355 0.1314
vn 0.1522 -0.2063 0.9666
vn 0.6919 -0.6295 0.3536
vn 0.2927 -0.7657 -0.5727
vn 0.3215 -0.7077 0.6291
vn 0.3840 -0.5366 -0.7514
vn 0.4452 -0.2069 -0.8712
vn 0.3536 -0.6295 0.6919
vn 0.9042 -0.3521 -0.2416
vn -0.4992 -0.7082 -0.4992
vn -0.1329 0.5093 -0.8503
vn -0.4452 -0.2069 0.8712
vn -0.6919 -0.6295 0.3536
vn -0.2927 -0.7657 0.5727
vn -0.6341 -0.3096 0.7086
vn 0.3840 -0.5366 0.7514
vn -0.4452 -0.2069 -0.8712
vn -0.1210 -0.6283 -0.7685
vn 0.0973 0.7804 0.6177
vn 0.6990 -0.7066 0.1101
vn 0.5643 -0.6027 -0.5643
vn -0.1522 -0.2063 -0.9666
vn -0.9421 0.2613 -0.2101
vn -0.5783 0.7927 -0.1932
vn -0.2164 0.9619 -0.1669
vn -0.0584 0.9855 -0.1592
vn -0.0065 0.9871 -0.1597
vn -0.6705 0.1967 -0.7153
vn -0.3657 0.5649 -0.7397
vn 0.3965 0.6890 0.6067
vn 0.5197 0.5818 0.6256
vn 0.0042 -0.7917 0.6108
vn -0.8916 0.4077 0.1970
vn -0.0000 -0.0000 -1.0000
vn -0.0000 -0.0000 1.0000
vn 0.6192 -0.7362 -0.2730
vn 0.6582 -0.2447 -0.7119
vn 0.1349 -0.7772 -0.6146
vn -0.1818 0.2934 0.9385
vn 0.0370 -0.7936 -0.6073
vn 0.0042 -0.7917 -0.6108
vn 0.9039 -0.3746 -0.2065
vn -0.1663 0.9308 -0.3255
vn 0.1534 -0.9752 -0.1593
vn 0.0419 -0.9866 -0.1580
vn -0.5883 -0.7905 -0.1703
vn 0.6498 -0.3943 -0.6498
vn 0.4392 -0.8811 0.1756
vn 0.6077 0.5113 -0.6077
vn 0.0048 -0.9872 0.1597
vn 0.0572 0.0079 -0.9983
vn 0.3641 -0.6584 0.6587
vn 0.1349 -0.7772 0.6146
vn 0.7610 -0.1409 0.6332
vn -0.4728 -0.6118 0.6341
vn 0.2030 0.1699 -0.9643
vn -0.3730 -0.6949 -0.6148
vn -0.1565 0.9752 0.1565
vn -0.4173 0.6029 0.6800
vn -0.1634 0.7629 0.6256
vn -0.0449 0.7918 0.6091
vn -0.0050 0.7918 0.6108
vn -0.4349 -0.2946 -0.8509
vn 0.4992 -0.7082 0.4992
vn -0.2840 0.7814 -0.5557
vn 0.7840 -0.5879 0.1992
vn 0.0048 -0.9872 -0.1597
vn -0.4603 -0.8728 -0.1621
vn 0.9039 -0.3746 0.2065
vn -0.7334 -0.6526 -0.1904
vn 0.9045 0.3740 -0.2052
vn 0.9661 0.1515 0.2090
vn 0.4707 -0.8416 -0.2649
vn -0.4728 -0.6118 -0.6341
vn 0.4392 -0.8811 -0.1756
vn -0.6340 -0.3096 -0.7086
vn 0.6917 0.1091 0.7139
vn -0.0095 0.9998 0.0158
vn 0.1393 -0.9900 -0.0219
vn 0.3965 0.6890 -0.6067
vn 0.5197 0.5818 -0.6256
vn 0.5956 0.4351 -0.6753
vn 0.4544 -0.7662 0.4544
vn 0.6917 0.1091 -0.7139
vn 0.0965 0.7842 0.6129
vn 0.6785 0.7161 -0.1640
vn 0.8104 0.5550 -0.1876
vn -0.6848 0.2494 -0.6848
vn 0.9661 0.1515 -0.2090
vn 0.5035 0.8497 0.1566
vn -0.1314 0.5351 -0.8345
vn 0.9281 0.3424 -0.1462
vn 0.9045 0.3740 0.2052
vn 0.4407 0.2491 0.8624
vn 0.1898 0.0830 -0.9783
vn 0.0370 -0.7936 0.6073
vn -0.2196 0.9750 -0.0346
vn 0.6480 0.2818 0.7076
vn 0.1534 -0.9752 0.1593
vn 0.2445 -0.6001 0.7617
vn -0.3730 -0.6949 0.6148
vn -0.7272 0.6118 -0.3112
vn -0.5584 -0.4772 0.6786
vn 0.1101 -0.7066 -0.6990
vn -0.6915 -0.1102 0.7139
vn 0.6480 0.2818 -0.7076
vn -0.5883 -0.7905 0.1703
vn 0.6756 -0.2950 -0.6756
vn -0.8744 -0.4393 0.2061
vn -0.9657 -0.1543 0.2090
vn 0.8319 0.0257 0.5543
vn 0.5727 -0.7657 0.2927
vn -0.3624 -0.6020 -0.7116
vn 0.7840 -0.5879 -0.1992
vn -0.6640 0.3437 -0.6640
vn 0.3495 -0.3558 0.8667
vn 0.6290 -0.3860 0.6748
vn 0.7610 -0.1409 -0.6332
vn 0.6290 -0.3860 -0.6748
vn 0.2445 -0.6001 -0.7617
vn -0.0000 0.1102 0.9939
vn 0.0877 0.1775 -0.9802
vn -0.2261 0.7365 0.6375
vn 0.3641 -0.6584 -0.6587
vn -0.4220 0.8752 0.2363
vn -0.1818 0.2934 -0.9385
vn 0.6402 -0.1363 -0.7560
vn -0.0337 0.9976 -0.0604
vn -0.1078 0.6272 -0.7714
vn -0.5351 0.3623 -0.7631
vn -0.9021 0.3575 -0.2417
vn -0.8916 0.4077 -0.1970
vn -0.6357 0.7405 -0.2180
vn -0.1431 -0.3928 -0.9084
vn -0.7272 0.6118 0.3112
vn 0.0517 -0.9986 -0.0081
vn -0.0050 0.7918 -0.6108
vn -0.6705 0.1967 0.7153
vn -0.1774 0.9528 0.2462
vn 0.6206 -0.6870 0.3780
vn -0.5351 0.3623 0.7631
vn -0.5670 0.4059 0.7168
vn -0.3657 0.5649 0.7397
vn -0.0844 0.9827 0.1651
vn -0.0000 0.1102 -0.9939
vn -0.0449 0.7918 -0.6091
vn 0.2030 0.1699 0.9643
vn 0.1898 0.0830 0.9783
vn 0.0572 0.0079 0.9983
vn 0.3495 -0.3558 -0.8667
vn 0.6402 -0.1363 0.7560
vn 0.0877 0.1775 0.9802
vn 0.2726 -0.9227 -0.2726
vn 0.6192 -0.7362 0.2730
vn 0.9042 -0.3521 0.2416
vn 0.9390 -0.2907 0.1838
vn 0.0419 -0.9866 0.1580
vn 0.3463 -0.9068 0.2405
vn -0.3748 0.9014 -0.2166
vn -0.2763 0.9474 0.1614
vn 0.0861 0.9933 -0.0777
vn 0.5711 -0.7440 0.3469
vn -0.1634 0.7629 -0.6256
vn -0.2590 0.6507 -0.7138
vn -0.2465 0.7201 -0.6486
vn -0.4173 0.6029 -0.6800
vn 0.3147 0.0046 0.9492
vn 0.2956 -0.5325 0.7931
vn -0.0000 0.1767 -0.9843
vn -0.0226 0.6849 -0.7283
vn -0.0190 0.6289 0.7772
vn -0.0030 0.1773 0.9842
vn 0.3267 -0.2882 -0.9001
vn 0.2569 0.4450 -0.8579
vn -0.0451 0.9987 0.0233
vn -0.1370 0.9347 -0.3280
vn -0.2763 0.9474 -0.1614
vn 0.0033 0.9935 -0.1141
vn 0.0861 0.9933 0.0777
vn -0.3230 0.9279 0.1865
vn -0.4220 0.8752 -0.2363
vn 0.6206 -0.6870 -0.3780
vn 0.8319 0.0257 -0.5543
vn -0.0095 0.9998 -0.0158
vn -0.3230 0.9279 -0.1865
vn 0.3267 -0.2882 0.9001
vn 0.2569 0.4450 0.8579
vn -0.0451 0.9987 -0.0233
vn -0.1370 0.9347 0.3280
vn -0.2465 0.7201 0.6486
vn -0.0000 0.1767 0.9843
vn -0.0226 0.6849 0.7283
vn -0.0337 0.9976 0.0603
vn -0.0190 0.6289 -0.7772
vn -0.0030 0.1773 -0.9842
vn -0.2590 0.6507 0.7138
vn -0.2261 0.7365 -0.6375
vn 0.0033 0.9935 0.1141
vn 0.3146 0.0046 -0.9492
vn 0.2956 -0.5325 -0.7931
vn -0.3748 0.9014 0.2166
vn -0.3776 0.9260 -0.0000
vn 0.5711 -0.7440 -0.3469
vn 0.4707 -0.8416 0.2649
vn -0.9693 0.1930 0.1524
vn -0.1217 -0.6176 -0.7770
vn -0.7901 -0.6004 0.1235
vn -0.8503 0.5093 0.1329
vn 0.0163 0.9944 0.1043
vn 0.8738 0.1931 -0.4462
vn -0.3566 -0.6192 -0.6996
vn 0.3624 -0.6020 -0.7116
vn -0.7662 0.5107 0.3901
vn 0.0477 0.9945 0.0938
vn 0.6938 0.1930 -0.6938
vn -0.5548 -0.6199 0.5548
vn -0.5643 -0.6027 -0.5643
vn -0.6077 0.5113 -0.6077
vn 0.0743 0.9945 0.0743
vn -0.8738 0.1931 -0.4462
vn -0.6996 -0.6192 -0.3566
vn -0.7116 -0.6020 -0.3624
vn -0.7662 0.5107 -0.3901
vn 0.0938 0.9945 0.0477
vn -0.1524 0.1930 0.9693
vn -0.7770 -0.6176 -0.1217
vn -0.7901 -0.6004 -0.1235
vn -0.8503 0.5093 -0.1329
vn 0.1043 0.9944 0.0163
vn -0.1524 0.1930 -0.9693
vn 0.7770 -0.6176 -0.1217
vn -0.1235 -0.6004 -0.7901
vn 0.8503 0.5093 -0.1329
vn -0.1043 0.9944 0.0163
vn 0.4462 0.1931 0.8738
vn 0.6996 -0.6192 -0.3566
vn 0.7116 -0.6020 -0.3624
vn 0.7662 0.5107 -0.3901
vn -0.0938 0.9945 0.0477
vn -0.4462 0.1931 0.8738
vn -0.5548 -0.6199 -0.5548
vn 0.9390 -0.2907 -0.1838
vn -0.3901 0.5107 -0.7662
vn -0.0743 0.9945 0.0743
vn 0.8738 0.1931 0.4462
vn 0.6996 -0.6192 0.3566
vn 0.7116 -0.6020 0.3624
vn 0.7662 0.5107 0.3901
vn -0.0477 0.9945 0.0938
vn -0.9693 0.1930 -0.1524
vn 0.1217 -0.6176 -0.7770
vn 0.7901 -0.6004 0.1235
vn 0.1329 0.5093 0.8503
vn -0.0163 0.9944 0.1043
vn 0.9693 0.1930 -0.1524
vn -0.7770 -0.6176 0.1217
vn 0.7901 -0.6004 -0.1235
vn -0.1329 0.5093 0.8503
vn -0.0163 0.9944 -0.1043
vn 0.1524 0.1930 0.9693
vn -0.6996 -0.6192 0.3566
vn -0.7116 -0.6020 0.3624
vn -0.3901 0.5107 0.7662
vn -0.0477 0.9945 -0.0938
vn -0.6938 0.1930 0.6938
vn 0.5548 -0.6199 -0.5548
vn -0.5643 -0.6027 0.5643
vn -0.6077 0.5113 0.6077
vn -0.0743 0.9945 -0.0743
vn 0.4462 0.1931 -0.8738
vn 0.3566 -0.6192 -0.6996
vn 0.5548 -0.6199 0.5548
vn 0.3901 0.5107 -0.7662
vn -0.0938 0.9945 -0.0477
vn 0.1524 0.1930 -0.9693
vn 0.1217 -0.6176 0.7770
vn 0.1235 -0.6004 -0.7901
vn 0.1329 0.5093 -0.8503
vn -0.1043 0.9944 -0.0163
vn 0.9693 0.1930 0.1524
vn -0.1217 -0.6176 0.7770
vn -0.1235 -0.6004 0.7901
vn 0.8503 0.5093 0.1329
vn 0.1043 0.9944 -0.0163
vn -0.4462 0.1931 -0.8738
vn -0.5491 -0.6300 0.5491
vn 0.3624 -0.6020 0.7116
vn -0.5966 0.5368 0.5966
vn 0.0938 0.9945 -0.0477
vn -0.6938 0.1930 -0.6938
vn -0.3566 -0.6192 0.6996
vn 0.5643 -0.6027 0.5643
vn 0.6077 0.5113 0.6077
vn 0.0743 0.9945 -0.0743
vn -0.8738 0.1931 0.4462
vn 0.3566 -0.6192 0.6996
vn -0.3624 -0.6020 0.7116
vn 0.3901 0.5107 0.7662
vn 0.0477 0.9945 -0.0938
vn -0.6918 -0.2072 0.6918
vn 0.7685 -0.6283 0.1210
vn 0.7770 -0.6176 0.1217
vn -0.7516 0.5363 0.3841
vn 0.0163 0.9944 -0.1043
vn -0.6129 0.7842 0.0965
vn -0.2196 0.9750 0.0346
vn -0.1518 0.9881 -0.0239
vn 0.0239 0.9881 -0.1518
vn -0.0570 0.9304 -0.3620
vn 0.5514 0.7852 0.2818
vn 0.1974 0.9751 -0.1009
vn 0.1364 0.9882 0.0697
vn -0.0368 -0.9986 -0.0368
vn 0.3255 0.9308 0.1663
vn -0.4375 0.7856 0.4375
vn -0.1565 0.9752 -0.1565
vn 0.1009 0.9751 0.1974
vn -0.1309 0.9827 -0.1309
vn -0.1757 -0.9225 -0.3437
vn -0.5514 0.7852 -0.2818
vn -0.1974 0.9751 -0.1009
vn 0.0697 0.9882 -0.1364
vn -0.0844 0.9827 -0.1651
vn -0.1663 0.9308 0.3255
vn -0.0965 0.7842 0.6129
vn -0.0346 0.9750 0.2196
vn -0.0239 0.9881 0.1518
vn -0.0289 0.9826 0.1837
vn -0.3620 0.9304 0.0570
vn -0.0965 0.7842 -0.6129
vn -0.0346 0.9750 -0.2196
vn 0.0239 0.9881 0.1518
vn -0.0289 0.9826 -0.1837
vn 0.3620 0.9304 -0.0570
vn 0.5514 0.7852 -0.2818
vn -0.1009 0.9751 -0.1974
vn -0.0697 0.9882 -0.1364
vn 0.1651 0.9827 -0.0844
vn 0.3255 0.9308 -0.1663
vn -0.2164 0.9619 0.1669
vn 0.1565 0.9752 0.1565
vn 0.1082 0.9882 0.1082
vn 0.1082 0.9882 -0.1082
vn 0.2582 0.9310 0.2582
vn 0.2818 0.7852 0.5514
vn 0.1974 0.9751 0.1009
vn -0.1364 0.9882 -0.0697
vn 0.0844 0.9827 -0.1651
vn -0.3255 0.9308 -0.1663
vn -0.6129 0.7842 -0.0965
vn 0.0346 0.9750 -0.2196
vn -0.0239 0.9881 -0.1518
vn 0.0289 0.9826 -0.1837
vn 0.0570 0.9304 -0.3620
vn 0.6129 0.7842 -0.0965
vn 0.2196 0.9750 -0.0346
vn 0.1518 0.9881 -0.0239
vn 0.1837 0.9826 0.0289
vn -0.3620 0.9304 -0.0570
vn 0.2818 0.7852 -0.5514
vn 0.1009 0.9751 -0.1974
vn 0.1364 0.9882 -0.0697
vn -0.1651 0.9827 -0.0844
vn -0.3255 0.9308 0.1663
vn 0.4375 0.7856 -0.4375
vn 0.1565 0.9752 -0.1565
vn -0.1082 0.9882 0.1082
vn -0.1309 0.9827 0.1309
vn 0.2582 0.9310 -0.2582
vn -0.5514 0.7852 0.2818
vn -0.0993 -0.9901 0.0993
vn -0.0640 -0.9901 -0.1252
vn -0.1651 0.9827 0.0844
vn 0.1663 0.9308 -0.3255
vn 0.0965 0.7842 -0.6129
vn 0.2196 0.9750 0.0346
vn -0.1837 0.9826 0.0289
vn 0.3620 0.9304 0.0570
vn 0.6129 0.7842 0.0965
vn -0.1837 0.9826 -0.0289
vn -0.1518 0.9881 0.0239
vn 0.0289 0.9826 0.1837
vn -0.1078 0.6272 0.7714
vn -0.2818 0.7852 -0.5514
vn -0.1974 0.9751 0.1009
vn 0.0697 0.9882 0.1364
vn 0.0844 0.9827 0.1651
vn 0.1663 0.9308 0.3255
vn 0.4375 0.7856 0.4375
vn -0.0602 -0.9221 0.3823
vn -0.1082 0.9882 -0.1082
vn 0.1309 0.9827 0.1309
vn -0.2582 0.9310 0.2582
vn -0.1002 -0.7648 -0.6365
vn -0.1009 0.9751 0.1974
vn -0.0697 0.9882 0.1364
vn 0.1651 0.9827 0.0844
vn -0.6357 0.7405 0.2180
vn -0.6915 -0.1102 -0.7139
vn 0.0346 0.9750 0.2196
vn 0.1518 0.9881 0.0239
vn 0.1837 0.9826 -0.0289
vn 0.0570 0.9304 0.3620
vn 0.1428 0.3968 0.9067
vn 0.1309 0.9827 -0.1309
vn -0.9021 0.3575 0.2417
vn -0.0517 -0.9986 -0.0081
vn 0.0019 -0.9999 -0.0119
vn 0.4183 -0.3939 0.8185
vn -0.5584 -0.4772 -0.6786
vn 0.0640 -0.9901 0.1252
vn 0.0465 -0.9986 0.0237
vn 0.0055 -0.9999 -0.0107
vn 0.6498 -0.3943 0.6498
vn 0.2726 -0.9227 0.2726
vn -0.0570 0.9304 0.3620
vn 0.0368 -0.9986 0.0368
vn 0.0085 -0.9999 -0.0085
vn 0.4183 -0.3939 -0.8185
vn 0.1757 -0.9225 0.3437
vn 0.0640 -0.9901 -0.1252
vn 0.0237 -0.9986 0.0465
vn 0.0107 -0.9999 -0.0055
vn -0.9084 -0.3928 0.1431
vn -0.0602 -0.9221 -0.3823
vn -0.1393 -0.9900 0.0219
vn 0.0081 -0.9986 -0.0517
vn 0.0119 -0.9999 -0.0019
vn 0.9084 -0.3928 0.1431
vn 0.3823 -0.9221 0.0602
vn -0.0219 -0.9900 0.1393
vn 0.0517 -0.9986 0.0081
vn -0.0119 -0.9999 -0.0019
vn 0.8185 -0.3939 0.4183
vn 0.3437 -0.9225 0.1757
vn 0.1252 -0.9901 0.0640
vn 0.0237 -0.9986 -0.0465
vn -0.0107 -0.9999 -0.0055
vn 0.6486 0.3983 -0.6486
vn -0.2582 0.9310 -0.2582
vn 0.0993 -0.9901 -0.0993
vn -0.0368 -0.9986 0.0368
vn -0.0085 -0.9999 -0.0085
vn -0.8185 -0.3939 0.4183
vn -0.3437 -0.9225 0.1757
vn -0.1252 -0.9901 0.0640
vn -0.0055 -0.9999 -0.0107
vn 0.9084 -0.3928 -0.1431
vn -0.3823 -0.9221 0.0602
vn -0.1393 -0.9900 -0.0219
vn -0.0019 -0.9999 -0.0119
vn -0.9084 -0.3928 -0.1431
vn 0.3823 -0.9221 -0.0602
vn 0.1393 -0.9900 0.0219
vn -0.0517 -0.9986 0.0081
vn -0.0019 -0.9999 0.0119
vn -0.8185 -0.3939 -0.4183
vn 0.1757 -0.9225 -0.3437
vn -0.1252 -0.9901 -0.0640
vn -0.0237 -0.9986 -0.0465
vn -0.0055 -0.9999 0.0107
vn -0.6498 -0.3943 -0.6498
vn -0.2726 -0.9227 -0.2726
vn 0.0993 -0.9901 0.0993
vn 0.0368 -0.9986 -0.0368
vn -0.0085 -0.9999 0.0085
vn 0.8185 -0.3939 -0.4183
vn 0.3437 -0.9225 -0.1757
vn 0.1252 -0.9901 -0.0640
vn 0.0465 -0.9986 -0.0237
vn -0.0107 -0.9999 0.0055
vn 0.1431 -0.3928 0.9084
vn 0.0602 -0.9221 0.3823
vn 0.0219 -0.9900 0.1393
vn 0.0081 -0.9986 0.0517
vn -0.0119 -0.9999 0.0019
vn 0.1431 -0.3928 -0.9084
vn 0.0602 -0.9221 -0.3823
vn 0.0219 -0.9900 -0.1393
vn -0.0081 -0.9986 0.0517
vn 0.0119 -0.9999 0.0019
vn -0.4183 -0.3939 -0.8185
vn -0.1757 -0.9225 0.3437
vn -0.0465 -0.9986 -0.0237
vn -0.0465 -0.9986 0.0237
vn 0.0107 -0.9999 0.0055
vn -0.6498 -0.3943 0.6498
vn -0.2726 -0.9227 0.2726
vn -0.0993 -0.9901 -0.0993
vn 0.0085 -0.9999 0.0085
vn -0.4175 0.3978 -0.8170
vn -0.3437 -0.9225 -0.1757
vn -0.0640 -0.9901 0.1252
vn -0.0237 -0.9986 0.0465
vn 0.0055 -0.9999 0.0107
vn -0.1431 -0.3928 0.9084
vn -0.3823 -0.9221 -0.0602
vn -0.0219 -0.9900 -0.1393
vn -0.0081 -0.9986 -0.0517
vn 0.0019 -0.9999 0.0119
vn 0.4617 -0.4220 0.7802
vn -0.4484 0.4515 0.7714
vn -0.4484 0.4515 -0.7714
vn 0.4617 -0.4220 -0.7802
vn -0.5670 0.4059 -0.7168
vn 0.4294 -0.8751 0.2233
vn -0.1878 0.8475 -0.4964
vn 0.3337 0.1518 0.9304
vn 0.3234 -0.5023 0.8020
vn -0.0056 0.1703 -0.9854
vn -0.0255 0.6742 -0.7381
vn -0.0112 0.6638 0.7478
vn -0.0000 0.1849 0.9828
vn 0.2948 -0.3297 -0.8969
vn 0.2566 0.4232 -0.8689
vn -0.2982 0.6034 0.7396
vn -0.5062 0.8212 0.2632
vn -0.5062 0.8212 -0.2632
vn 0.2948 -0.3297 0.8969
vn 0.2566 0.4232 0.8689
vn -0.2982 0.6034 -0.7396
vn -0.0056 0.1703 0.9854
vn -0.0255 0.6742 0.7381
vn -0.0112 0.6638 -0.7478
vn -0.0000 0.1849 -0.9828
vn -0.1878 0.8475 0.4964
vn 0.3337 0.1518 -0.9304
vn 0.3234 -0.5023 -0.8020
vn 0.4294 -0.8751 -0.2233
vn 0.7036 0.0993 -0.7036
s 0
f 38//1 39//1 40//1 37//1
f 41//2 42//2 39//2 38//2
f 43//3 44//3 42//3 41//3
f 45//4 46//4 44//4 43//4
f 45//5 47//5 48//5 46//5
f 115//6 116//6 110//6 109//6
f 689//7 690//7 685//7 684//7
f 117//3 118//3 112//3 111//3
f 64//8 65//8 59//8 58//8
f 53//9 54//9 47//9 45//9
f 86//10 80//10 79//10 85//10
f 86//11 87//11 81//11 80//11
f 112//3 106//3 105//3 111//3
f 58//12 59//12 53//12 52//12
f 89//13 83//13 82//13 88//13
f 91//14 92//14 86//14 85//14
f 105//15 99//15 98//15 104//15
f 401//16 402//16 397//16 396//16
f 94//17 95//17 89//17 88//17
f 96//18 90//18 89//18 95//18
f 40//19 39//19 92//19 91//19
f 3//20 6//20 63//20 62//20
f 6//3 8//3 64//3 63//3
f 8//21 10//21 65//21 64//21
f 12//22 66//22 65//22 10//22
f 98//23 32//23 31//23 97//23
f 71//24 72//24 69//24 68//24
f 73//3 74//3 72//3 71//3
f 75//25 76//25 74//25 73//25
f 75//26 77//26 78//26 76//26
f 104//27 98//27 97//27 103//27
f 116//28 117//28 111//28 110//28
f 16//3 7//3 5//3 15//3
f 107//29 101//29 100//29 106//29
f 83//30 84//30 77//30 75//30
f 109//31 110//31 104//31 103//31
f 710//32 705//32 704//32 709//32
f 88//3 82//3 81//3 87//3
f 113//33 107//33 106//33 112//33
f 90//34 84//34 83//34 89//34
f 288//35 289//35 283//35 281//35
f 92//36 93//36 87//36 86//36
f 93//3 94//3 88//3 87//3
f 118//37 119//37 113//37 112//37
f 83//38 75//38 73//38 82//38
f 2//39 3//39 4//39 1//39
f 69//40 72//40 117//40 116//40
f 343//41 344//41 338//41 337//41
f 44//42 46//42 95//42 94//42
f 48//43 96//43 95//43 46//43
f 4//44 3//44 62//44 61//44
f 99//45 33//45 32//45 98//45
f 100//3 34//3 33//3 99//3
f 101//46 35//46 34//46 100//46
f 101//47 102//47 36//47 35//47
f 61//48 62//48 56//48 55//48
f 62//49 63//49 57//49 56//49
f 106//3 100//3 99//3 105//3
f 53//50 45//50 43//50 52//50
f 107//51 108//51 102//51 101//51
f 239//52 234//52 233//52 238//52
f 57//53 51//53 50//53 56//53
f 22//3 16//3 15//3 21//3
f 319//54 320//54 321//54 322//54
f 114//55 108//55 107//55 113//55
f 80//56 68//56 67//56 79//56
f 26//57 27//57 21//57 20//57
f 27//3 28//3 22//3 21//3
f 36//58 30//58 29//58 35//58
f 66//59 60//59 59//59 65//59
f 70//60 69//60 116//60 115//60
f 32//61 33//61 27//61 26//61
f 72//3 74//3 118//3 117//3
f 74//62 76//62 119//62 118//62
f 78//63 120//63 119//63 76//63
f 31//64 32//64 26//64 25//64
f 39//65 42//65 93//65 92//65
f 42//3 44//3 94//3 93//3
f 34//66 35//66 29//66 28//66
f 9//67 10//67 8//67 7//67
f 14//68 2//68 1//68 13//68
f 51//69 41//69 38//69 50//69
f 52//3 43//3 41//3 51//3
f 17//70 9//70 7//70 16//70
f 120//71 114//71 113//71 119//71
f 20//72 14//72 13//72 19//72
f 21//73 15//73 14//73 20//73
f 682//74 675//74 673//74 681//74
f 23//75 24//75 18//75 17//75
f 22//76 23//76 17//76 16//76
f 25//77 26//77 20//77 19//77
f 15//78 5//78 2//78 14//78
f 63//3 64//3 58//3 57//3
f 28//79 29//79 23//79 22//79
f 30//80 24//80 23//80 29//80
f 226//81 228//81 229//81 227//81
f 409//82 404//82 154//82 408//82
f 33//3 34//3 28//3 27//3
f 437//83 439//83 487//83 486//83
f 9//84 11//84 12//84 10//84
f 152//85 153//85 154//85 151//85
f 383//86 385//86 386//86 384//86
f 156//87 158//87 199//87 198//87
f 205//88 150//88 149//88 204//88
f 37//89 40//89 160//89 159//89
f 196//90 197//90 192//90 191//90
f 188//91 180//91 177//91 187//91
f 209//92 204//92 203//92 208//92
f 468//93 469//93 463//93 462//93
f 103//94 97//94 205//94 210//94
f 216//95 217//95 212//95 211//95
f 167//96 168//96 163//96 162//96
f 168//97 169//97 164//97 163//97
f 195//98 190//98 189//98 194//98
f 195//99 85//99 79//99 190//99
f 179//100 178//100 217//100 216//100
f 172//101 173//101 168//101 167//101
f 218//102 219//102 214//102 213//102
f 174//103 175//103 170//103 169//103
f 175//104 61//104 55//104 170//104
f 124//105 123//105 172//105 171//105
f 123//106 126//106 173//106 172//106
f 181//107 183//107 219//107 218//107
f 128//108 130//108 175//108 174//108
f 130//109 4//109 61//109 175//109
f 154//110 153//110 197//110 196//110
f 125//111 126//111 123//111 122//111
f 126//112 128//112 174//112 173//112
f 184//113 185//113 183//113 182//113
f 160//114 40//114 91//114 200//114
f 132//115 122//115 121//115 131//115
f 197//116 198//116 193//116 192//116
f 198//117 199//117 194//117 193//117
f 219//118 220//118 215//118 214//118
f 79//119 67//119 184//119 190//119
f 136//120 137//120 132//120 131//120
f 322//121 373//121 427//121 388//121
f 189//122 182//122 180//122 188//122
f 793//123 785//123 270//123 265//123
f 19//124 13//124 135//124 140//124
f 207//125 202//125 201//125 206//125
f 153//126 156//126 198//126 197//126
f 405//127 406//127 402//127 401//127
f 210//128 205//128 204//128 209//128
f 67//129 70//129 185//129 184//129
f 554//130 555//130 550//130 549//130
f 180//131 181//131 178//131 177//131
f 182//132 183//132 181//132 180//132
f 183//133 185//133 220//133 219//133
f 325//134 327//134 328//134 326//134
f 122//135 123//135 124//135 121//135
f 203//136 148//136 147//136 202//136
f 127//137 128//137 126//137 125//137
f 158//138 160//138 200//138 199//138
f 97//139 31//139 150//139 205//139
f 162//140 152//140 151//140 161//140
f 208//141 203//141 202//141 207//141
f 134//142 127//142 125//142 133//142
f 199//143 200//143 195//143 194//143
f 220//144 115//144 109//144 215//144
f 167//145 162//145 161//145 166//145
f 212//146 213//146 208//146 207//146
f 213//147 214//147 209//147 208//147
f 170//148 165//148 164//148 169//148
f 13//149 1//149 129//149 135//149
f 141//150 142//150 137//150 136//150
f 217//151 218//151 213//151 212//151
f 143//152 144//152 139//152 138//152
f 144//153 145//153 140//153 139//153
f 145//154 25//154 19//154 140//154
f 146//155 147//155 142//155 141//155
f 178//156 181//156 218//156 217//156
f 148//157 149//157 144//157 143//157
f 149//158 150//158 145//158 144//158
f 185//159 70//159 115//159 220//159
f 177//160 178//160 179//160 176//160
f 155//161 156//161 153//161 152//161
f 157//162 158//162 156//162 155//162
f 159//163 160//163 158//163 157//163
f 1//164 4//164 130//164 129//164
f 187//165 177//165 176//165 186//165
f 163//166 155//166 152//166 162//166
f 164//167 157//167 155//167 163//167
f 165//168 159//168 157//168 164//168
f 49//169 37//169 159//169 165//169
f 191//170 192//170 187//170 186//170
f 137//171 138//171 133//171 132//171
f 138//172 139//172 134//172 133//172
f 140//173 135//173 134//173 139//173
f 55//174 49//174 165//174 170//174
f 171//175 172//175 167//175 166//175
f 142//176 143//176 138//176 137//176
f 173//177 174//177 169//177 168//177
f 135//178 129//178 127//178 134//178
f 200//179 91//179 85//179 195//179
f 202//180 147//180 146//180 201//180
f 147//181 148//181 143//181 142//181
f 329//182 330//182 328//182 327//182
f 109//183 103//183 210//183 215//183
f 150//184 31//184 25//184 145//184
f 250//185 251//185 252//185 253//185
f 251//186 254//186 255//186 252//186
f 254//187 256//187 257//187 255//187
f 229//188 274//188 273//188 227//188
f 124//189 171//189 274//189 229//189
f 315//190 310//190 309//190 314//190
f 261//191 262//191 254//191 251//191
f 287//192 288//192 281//192 279//192
f 404//193 405//193 401//193 400//193
f 264//194 161//194 151//194 258//194
f 310//195 305//195 304//195 309//195
f 267//196 262//196 261//196 266//196
f 312//197 307//197 306//197 311//197
f 269//198 264//198 263//198 268//198
f 294//199 191//199 186//199 289//199
f 295//200 291//200 290//200 764//200
f 296//201 292//201 291//201 295//201
f 297//202 293//202 292//202 296//202
f 263//203 264//203 258//203 256//203
f 196//204 191//204 294//204 298//204
f 252//205 295//205 764//205 253//205
f 255//206 296//206 295//206 252//206
f 257//207 297//207 296//207 255//207
f 259//208 298//208 297//208 257//208
f 154//209 196//209 298//209 259//209
f 299//210 300//210 246//210 245//210
f 300//211 301//211 247//211 246//211
f 227//212 273//212 272//212 225//212
f 302//213 303//213 249//213 248//213
f 303//214 201//214 146//214 249//214
f 304//215 305//215 300//215 299//215
f 305//216 306//216 301//216 300//216
f 306//217 307//217 302//217 301//217
f 298//218 294//218 293//218 297//218
f 308//219 206//219 201//219 303//219
f 291//220 286//220 285//220 290//220
f 291//221 292//221 287//221 286//221
f 273//222 268//222 267//222 272//222
f 294//223 289//223 288//223 293//223
f 136//224 131//224 234//224 239//224
f 285//225 286//225 276//225 275//225
f 286//226 287//226 279//226 276//226
f 262//227 263//227 256//227 254//227
f 244//228 239//228 238//228 243//228
f 141//229 136//229 239//229 244//229
f 817//230 221//230 222//230 223//230
f 247//231 242//231 241//231 246//231
f 279//232 281//232 282//232 280//232
f 256//233 258//233 259//233 257//233
f 146//234 141//234 244//234 249//234
f 222//235 271//235 270//235 223//235
f 221//236 224//236 225//236 222//236
f 301//237 302//237 248//237 247//237
f 284//238 318//238 317//238 282//238
f 258//239 151//239 154//239 259//239
f 542//240 544//240 545//240 543//240
f 110//241 111//241 105//241 104//241
f 243//242 238//242 237//242 242//242
f 274//243 269//243 268//243 273//243
f 179//244 216//244 318//244 284//244
f 236//245 231//245 230//245 235//245
f 311//246 306//246 305//246 310//246
f 268//247 263//247 262//247 267//247
f 313//248 308//248 307//248 312//248
f 313//249 211//249 206//249 308//249
f 271//250 266//250 265//250 270//250
f 231//251 232//251 224//251 221//251
f 317//252 312//252 311//252 316//252
f 307//253 308//253 303//253 302//253
f 234//254 131//254 121//254 228//254
f 277//255 315//255 314//255 278//255
f 280//256 316//256 315//256 277//256
f 224//257 226//257 227//257 225//257
f 281//258 283//258 284//258 282//258
f 388//259 427//259 426//259 386//259
f 320//260 323//260 324//260 321//260
f 225//261 272//261 271//261 222//261
f 379//262 380//262 381//262 382//262
f 249//263 244//263 243//263 248//263
f 228//264 121//264 124//264 229//264
f 241//265 236//265 235//265 240//265
f 316//266 311//266 310//266 315//266
f 232//267 233//267 226//267 224//267
f 318//268 313//268 312//268 317//268
f 216//269 211//269 313//269 318//269
f 230//270 231//270 221//270 817//270
f 433//271 484//271 483//271 430//271
f 293//272 288//272 287//272 292//272
f 602//273 603//273 601//273 600//273
f 171//274 166//274 269//274 274//274
f 260//275 261//275 251//275 250//275
f 272//276 267//276 266//276 271//276
f 392//277 393//277 387//277 385//277
f 233//278 234//278 228//278 226//278
f 289//279 186//279 176//279 283//279
f 275//280 276//280 277//280 278//280
f 5//281 6//281 3//281 2//281
f 248//282 243//282 242//282 247//282
f 631//283 632//283 627//283 626//283
f 283//284 176//284 179//284 284//284
f 321//285 374//285 373//285 322//285
f 324//286 375//286 374//286 321//286
f 326//287 376//287 375//287 324//287
f 328//288 377//288 376//288 326//288
f 328//289 330//289 378//289 377//289
f 374//290 368//290 367//290 373//290
f 473//291 474//291 468//291 467//291
f 399//292 400//292 395//292 394//292
f 400//293 401//293 396//293 395//293
f 348//294 342//294 341//294 347//294
f 461//295 455//295 454//295 460//295
f 369//296 363//296 362//296 368//296
f 339//297 334//297 333//297
f 371//296 365//296 364//296 370//296
f 430//298 483//298 482//298 431//298
f 362//299 356//299 355//299 361//299
f 364//300 358//300 357//300 363//300
f 447//301 441//301 446//301 452//301
f 365//302 359//302 358//302 364//302
f 365//303 366//303 360//303 359//303
f 356//304 350//304 349//304 355//304
f 604//305 594//305 702//305 708//305
f 358//306 352//306 351//306 357//306
f 359//307 353//307 352//307 358//307
f 384//308 425//308 424//308 381//308
f 752//309 748//309 309//309 304//309
f 350//310 351//310 345//310 344//310
f 397//297 398//297 393//297 392//297
f 632//311 633//311 628//311 627//311
f 354//312 348//312 347//312 353//312
f 480//313 481//313 475//313 474//313
f 344//314 345//314 339//314 338//314
f 345//315 346//315 340//315 339//315
f 443//316 434//316 432//316 442//316
f 390//317 391//317 383//317 380//317
f 337//297 338//297 332//297 331//297
f 478//318 479//318 473//318 472//318
f 370//296 363//296 369//296
f 424//319 419//319 418//319 423//319
f 342//297 336//297 335//297 341//297
f 686//320 681//320 680//320 685//320
f 332//321 333//321 323//321 320//321
f 333//322 334//322 325//322 323//322
f 334//323 335//323 327//323 325//323
f 336//324 329//324 327//324 335//324
f 17//325 18//325 11//325 9//325
f 237//326 238//326 233//326 232//326
f 81//327 71//327 68//327 80//327
f 436//328 437//328 435//328 434//328
f 359//329 360//329 354//329 353//329
f 381//330 424//330 423//330 382//330
f 349//331 350//331 344//331 343//331
f 386//332 426//332 425//332 384//332
f 412//333 407//333 406//333 411//333
f 407//334 349//334 343//334 403//334
f 537//335 536//335 497//335 431//335
f 425//336 420//336 419//336 424//336
f 357//337 351//337 350//337 356//337
f 427//338 422//338 421//338 426//338
f 403//339 343//339 337//339 398//339
f 394//297 390//297 389//297
f 521//340 516//340 515//340 520//340
f 761//341 762//341 758//341 757//341
f 422//296 417//296 416//296 421//296
f 368//296 362//296 361//296 367//296
f 414//342 409//342 408//342 413//342
f 415//343 410//343 409//343 414//343
f 416//344 411//344 410//344 415//344
f 237//345 232//345 231//345 236//345
f 361//346 355//346 412//346 417//346
f 640//347 641//347 642//347 639//347
f 410//348 405//348 404//348 409//348
f 411//349 406//349 405//349 410//349
f 192//350 193//350 188//350 187//350
f 355//351 349//351 407//351 412//351
f 154//352 404//352 400//352 399//352
f 68//353 69//353 70//353 67//353
f 204//354 149//354 148//354 203//354
f 406//355 407//355 403//355 402//355
f 133//356 125//356 122//356 132//356
f 479//357 480//357 474//357 473//357
f 346//358 347//358 341//358 340//358
f 671//359 674//359 716//359 715//359
f 402//360 403//360 398//360 397//360
f 351//361 352//361 346//361 345//361
f 419//296 413//296 418//296
f 395//297 396//297 391//297 390//297
f 396//297 397//297 392//297 391//297
f 445//362 438//362 436//362 444//362
f 398//297 337//297 331//297 393//297
f 389//363 390//363 380//363 379//363
f 465//364 459//364 458//364 464//364
f 391//365 392//365 385//365 383//365
f 282//366 317//366 316//366 280//366
f 393//367 331//367 319//367 387//367
f 417//368 412//368 411//368 416//368
f 380//369 383//369 384//369 381//369
f 59//370 60//370 54//370 53//370
f 385//371 387//371 388//371 386//371
f 387//372 319//372 322//372 388//372
f 519//373 520//373 515//373 514//373
f 242//374 237//374 236//374 241//374
f 606//375 607//375 600//375 598//375
f 435//376 437//376 486//376 485//376
f 193//377 194//377 189//377 188//377
f 440//378 429//378 428//378
f 444//379 436//379 434//379 443//379
f 484//380 485//380 479//380 478//380
f 485//381 486//381 480//381 479//381
f 486//382 487//382 481//382 480//382
f 446//383 441//383 440//383
f 477//384 478//384 472//384 471//384
f 533//385 534//385 530//385 529//385
f 363//386 357//386 356//386 362//386
f 516//387 517//387 452//387 512//387
f 477//388 471//388 464//388 470//388
f 484//389 478//389 477//389 483//389
f 338//297 339//297 333//297 332//297
f 531//390 526//390 525//390 530//390
f 474//391 475//391 469//391 468//391
f 471//392 472//392 466//392 465//392
f 465//393 466//393 460//393 459//393
f 466//394 467//394 461//394 460//394
f 467//395 468//395 462//395 461//395
f 278//396 740//396 781//396 275//396
f 458//397 459//397 453//397 452//397
f 762//398 763//398 759//398 758//398
f 377//399 378//399 372//399 371//399
f 331//400 332//400 320//400 319//400
f 463//401 457//401 456//401 462//401
f 518//402 519//402 514//402 513//402
f 454//403 448//403 447//403 453//403
f 455//404 449//404 448//404 454//404
f 456//405 450//405 449//405 455//405
f 692//406 693//406 688//406 687//406
f 477//407 470//407 476//407
f 377//408 371//408 370//408 376//408
f 449//409 443//409 442//409 448//409
f 450//410 444//410 443//410 449//410
f 451//411 445//411 444//411 450//411
f 483//412 476//412 482//412
f 441//413 442//413 432//413 429//413
f 420//296 415//296 414//296 419//296
f 448//414 442//414 441//414 447//414
f 752//415 753//415 749//415 748//415
f 428//416 429//416 430//416 431//416
f 429//417 432//417 433//417 430//417
f 434//418 435//418 433//418 432//418
f 352//419 353//419 347//419 346//419
f 438//420 439//420 437//420 436//420
f 489//421 491//421 488//421
f 490//422 493//422 535//422 534//422
f 493//423 495//423 536//423 535//423
f 494//424 497//424 495//424
f 376//425 370//425 369//425 375//425
f 499//426 488//426 498//426
f 522//427 521//427 527//427 470//427
f 375//428 369//428 368//428 374//428
f 501//429 496//429 494//429
f 502//430 428//430 496//430
f 504//431 498//431 503//431
f 505//432 499//432 504//432
f 340//297 341//297 335//297 334//297
f 506//433 502//433 501//433
f 507//434 440//434 502//434
f 509//435 503//435 508//435
f 510//436 504//436 509//436
f 510//437 506//437 505//437
f 521//438 520//438 526//438 527//438
f 492//439 493//439 490//439 489//439
f 535//440 536//440 531//440 530//440
f 494//441 495//441 493//441 492//441
f 516//442 512//442 511//442
f 517//443 516//443 522//443 464//443
f 514//444 509//444 508//444 513//444
f 515//445 510//445 509//445 514//445
f 515//446 516//446 511//446 510//446
f 522//447 516//447 521//447
f 367//296 361//296 417//296 422//296
f 523//448 519//448 518//448
f 524//449 520//449 519//449
f 526//450 520//450 525//450
f 510//451 511//451 507//451 506//451
f 511//452 512//452 446//452 507//452
f 528//453 524//453 523//453
f 529//454 525//454 524//454
f 505//455 506//455 501//455 500//455
f 532//456 526//456 531//456
f 476//457 527//457 532//457
f 533//458 529//458 528//458
f 489//459 488//459 499//459 500//459
f 501//460 494//460 492//460 500//460
f 537//461 531//461 536//461
f 482//462 532//462 537//462
f 491//463 534//463 533//463
f 490//464 534//464 491//464 489//464
f 371//296 372//296 366//296 365//296
f 497//465 536//465 495//465
f 494//466 496//466 431//466 497//466
f 570//467 571//467 572//467 569//467
f 595//468 598//468 599//468 596//468
f 573//469 575//469 576//469 574//469
f 577//470 578//470 576//470 575//470
f 546//471 548//471 547//471
f 625//472 620//472 619//472 624//472
f 605//473 606//473 598//473 595//473
f 637//474 632//474 631//474 636//474
f 583//475 577//475 575//475 582//475
f 553//476 548//476 546//476
f 629//477 630//477 625//477 624//477
f 585//478 586//478 581//478 580//478
f 611//479 612//479 607//479 606//479
f 613//480 608//480 607//480 612//480
f 558//481 548//481 553//481
f 614//482 615//482 610//482 609//482
f 616//483 611//483 610//483 615//483
f 617//484 612//484 611//484 616//484
f 617//485 618//485 613//485 612//485
f 563//486 548//486 558//486
f 541//487 540//487 590//487 589//487
f 574//488 616//488 615//488 571//488
f 576//489 617//489 616//489 574//489
f 576//490 578//490 618//490 617//490
f 568//491 548//491 563//491
f 595//492 596//492 597//492 594//492
f 620//493 621//493 566//493 565//493
f 598//494 600//494 601//494 599//494
f 623//495 568//495 567//495 622//495
f 577//496 548//496 578//496
f 550//497 539//497 538//497 549//497
f 625//498 626//498 621//498 620//498
f 626//499 627//499 622//499 621//499
f 628//500 623//500 622//500 627//500
f 583//501 548//501 577//501
f 589//502 590//502 585//502 584//502
f 610//503 611//503 606//503 605//503
f 433//504 435//504 485//504 484//504
f 608//505 602//505 600//505 607//505
f 588//506 548//506 583//506
f 559//507 560//507 555//507 554//507
f 561//508 556//508 555//508 560//508
f 562//509 557//509 556//509 561//509
f 562//510 563//510 558//510 557//510
f 593//511 548//511 588//511
f 572//512 571//512 615//512 614//512
f 599//513 636//513 635//513 596//513
f 567//514 562//514 561//514 566//514
f 546//515 547//515 545//515 544//515
f 547//516 548//516 593//516
f 620//517 565//517 564//517 619//517
f 570//518 573//518 574//518 571//518
f 621//519 622//519 567//519 566//519
f 545//520 547//520 593//520 592//520
f 602//521 548//521 603//521
f 539//522 540//522 541//522 538//522
f 580//523 581//523 573//523 570//523
f 581//524 582//524 575//524 573//524
f 592//525 593//525 588//525 587//525
f 608//526 548//526 602//526
f 584//527 585//527 580//527 579//527
f 630//528 631//528 626//528 625//528
f 586//529 587//529 582//529 581//529
f 588//530 583//530 582//530 587//530
f 613//531 548//531 608//531
f 634//532 635//532 630//532 629//532
f 636//533 631//533 630//533 635//533
f 555//534 556//534 551//534 550//534
f 637//535 638//535 633//535 632//535
f 618//536 548//536 613//536
f 597//537 596//537 635//537 634//537
f 539//538 542//538 543//538 540//538
f 601//539 637//539 636//539 599//539
f 601//540 603//540 638//540 637//540
f 578//541 548//541 618//541
f 564//542 565//542 560//542 559//542
f 543//543 591//543 590//543 540//543
f 545//544 592//544 591//544 543//544
f 567//545 568//545 563//545 562//545
f 623//546 548//546 568//546
f 605//547 595//547 594//547 604//547
f 266//548 261//548 260//548 265//548
f 551//549 552//549 544//549 542//549
f 55//550 56//550 50//550 49//550
f 628//551 548//551 623//551
f 609//552 610//552 605//552 604//552
f 591//553 586//553 585//553 590//553
f 556//554 557//554 552//554 551//554
f 558//555 553//555 552//555 557//555
f 633//556 548//556 628//556
f 580//557 570//557 569//557 579//557
f 550//558 551//558 542//558 539//558
f 592//559 587//559 586//559 591//559
f 553//560 546//560 544//560 552//560
f 638//561 548//561 633//561
f 166//562 161//562 264//562 269//562
f 246//563 241//563 240//563 245//563
f 566//564 561//564 560//564 565//564
f 50//565 38//565 37//565 49//565
f 603//566 548//566 638//566
f 670//567 671//567 672//567 669//567
f 673//568 674//568 671//568 670//568
f 674//569 676//569 717//569 716//569
f 699//570 701//570 737//570 736//570
f 594//571 597//571 703//571 702//571
f 659//572 660//572 655//572 654//572
f 726//573 721//573 720//573 725//573
f 661//574 662//574 657//574 656//574
f 780//575 776//575 775//575 779//575
f 663//576 559//576 554//576 658//576
f 685//577 680//577 679//577 684//577
f 711//578 706//578 705//578 710//578
f 651//579 643//579 640//579 650//579
f 713//580 708//580 707//580 712//580
f 781//581 782//581 778//581 777//581
f 714//582 715//582 710//582 709//582
f 715//583 716//583 711//583 710//583
f 736//584 737//584 732//584 731//584
f 708//585 702//585 700//585 707//585
f 693//586 589//586 584//586 688//586
f 642//587 641//587 690//587 689//587
f 641//588 644//588 691//588 690//588
f 644//589 646//589 692//589 691//589
f 646//590 648//590 693//590 692//590
f 569//591 572//591 678//591 677//591
f 695//592 696//592 697//592 694//592
f 698//593 699//593 696//593 695//593
f 645//594 646//594 644//594 643//594
f 702//595 703//595 701//595 700//595
f 619//596 564//596 668//596 723//596
f 725//597 720//597 719//597 724//597
f 706//598 698//598 695//598 705//598
f 707//599 700//599 698//599 706//599
f 728//600 723//600 722//600 727//600
f 624//601 619//601 723//601 728//601
f 323//602 325//602 326//602 324//602
f 656//603 651//603 650//603 655//603
f 656//604 657//604 652//604 651//604
f 732//605 727//605 726//605 731//605
f 658//606 554//606 549//606 653//606
f 650//607 640//607 639//607 649//607
f 660//608 661//608 656//608 655//608
f 716//609 717//609 712//609 711//609
f 737//610 738//610 733//610 732//610
f 718//611 614//611 609//611 713//611
f 672//612 671//612 715//612 714//612
f 696//613 699//613 736//613 735//613
f 700//614 701//614 699//614 698//614
f 701//615 703//615 738//615 737//615
f 703//616 597//616 634//616 738//616
f 720//617 665//617 664//617 719//617
f 721//618 666//618 665//618 720//618
f 722//619 667//619 666//619 721//619
f 667//620 668//620 663//620 662//620
f 678//621 572//621 614//621 718//621
f 734//622 735//622 730//622 729//622
f 735//623 736//623 731//623 730//623
f 727//624 722//624 721//624 726//624
f 717//625 718//625 713//625 712//625
f 579//626 569//626 677//626 683//626
f 729//627 730//627 725//627 724//627
f 731//628 726//628 725//628 730//628
f 687//629 682//629 681//629 686//629
f 688//630 683//630 682//630 687//630
f 733//631 629//631 624//631 728//631
f 680//632 670//632 669//632 679//632
f 799//633 795//633 794//633 798//633
f 782//634 783//634 779//634 778//634
f 683//635 677//635 675//635 682//635
f 738//636 634//636 629//636 733//636
f 697//637 696//637 735//637 734//637
f 665//638 666//638 661//638 660//638
f 421//296 416//296 415//296 420//296
f 677//639 678//639 676//639 675//639
f 668//640 564//640 559//640 663//640
f 664//641 665//641 660//641 659//641
f 676//642 678//642 718//642 717//642
f 675//643 676//643 674//643 673//643
f 647//644 648//644 646//644 645//644
f 457//645 451//645 450//645 456//645
f 705//646 695//646 694//646 704//646
f 681//647 673//647 670//647 680//647
f 652//648 645//648 643//648 651//648
f 653//649 647//649 645//649 652//649
f 549//650 538//650 647//650 653//650
f 655//651 650//651 649//651 654//651
f 787//652 788//652 786//652 785//652
f 711//653 712//653 707//653 706//653
f 658//654 653//654 652//654 657//654
f 688//655 584//655 579//655 683//655
f 276//656 279//656 280//656 277//656
f 690//657 691//657 686//657 685//657
f 691//658 692//658 687//658 686//658
f 662//659 663//659 658//659 657//659
f 462//660 456//660 455//660 461//660
f 373//661 367//661 422//661 427//661
f 643//662 644//662 641//662 640//662
f 666//663 667//663 662//663 661//663
f 723//664 668//664 667//664 722//664
f 538//665 541//665 648//665 647//665
f 129//666 130//666 128//666 127//666
f 733//667 728//667 727//667 732//667
f 460//668 454//668 453//668 459//668
f 771//669 772//669 770//669 769//669
f 745//670 747//670 746//670
f 817//671 818//671 813//671 230//671
f 426//672 421//672 420//672 425//672
f 819//673 820//673 815//673 814//673
f 812//674 808//674 807//674 811//674
f 751//675 747//675 745//675
f 230//676 813//676 809//676 235//676
f 814//677 810//677 809//677 813//677
f 648//678 541//678 589//678 693//678
f 816//679 812//679 811//679 815//679
f 755//680 747//680 751//680
f 748//681 739//681 314//681 309//681
f 818//682 819//682 814//682 813//682
f 750//683 743//683 741//683 749//683
f 820//684 821//684 816//684 815//684
f 759//685 747//685 755//685
f 253//686 766//686 801//686 250//686
f 740//687 742//687 782//687 781//687
f 768//688 770//688 803//688 802//688
f 745//689 746//689 744//689 743//689
f 763//690 747//690 759//690
f 805//691 760//691 245//691 240//691
f 806//692 761//692 760//692 805//692
f 789//693 790//693 788//693 787//693
f 808//694 763//694 762//694 807//694
f 771//695 747//695 772//695
f 809//696 805//696 240//696 235//696
f 810//697 806//697 805//697 809//697
f 811//698 807//698 806//698 810//698
f 751//699 745//699 743//699 750//699
f 776//700 747//700 771//700
f 214//701 215//701 210//701 209//701
f 713//702 609//702 604//702 708//702
f 754//703 750//703 749//703 753//703
f 800//704 796//704 795//704 799//704
f 780//705 747//705 776//705
f 250//706 801//706 797//706 260//706
f 801//707 802//707 798//707 797//707
f 802//708 803//708 799//708 798//708
f 82//3 73//3 71//3 81//3
f 784//709 747//709 780//709
f 245//710 760//710 756//710 299//710
f 766//711 768//711 802//711 801//711
f 769//712 770//712 768//712 767//712
f 7//3 8//3 6//3 5//3
f 746//713 747//713 784//713
f 765//714 766//714 253//714 764//714
f 760//715 761//715 757//715 756//715
f 807//716 762//716 761//716 806//716
f 770//717 772//717 804//717 803//717
f 791//718 747//718 792//718
f 773//719 765//719 764//719 290//719
f 749//720 741//720 739//720 748//720
f 775//721 769//721 767//721 774//721
f 783//722 784//722 780//722 779//722
f 796//723 747//723 791//723
f 777//724 773//724 290//724 285//724
f 777//725 778//725 774//725 773//725
f 814//726 815//726 811//726 810//726
f 755//727 751//727 750//727 754//727
f 800//728 747//728 796//728
f 299//729 756//729 752//729 304//729
f 756//730 757//730 753//730 752//730
f 757//731 758//731 754//731 753//731
f 758//732 759//732 755//732 754//732
f 804//733 747//733 800//733
f 223//734 786//734 818//734 817//734
f 786//735 788//735 819//735 818//735
f 788//736 790//736 820//736 819//736
f 790//737 792//737 821//737 820//737
f 772//738 747//738 804//738
f 739//739 740//739 278//739 314//739
f 741//740 742//740 740//740 739//740
f 743//741 744//741 742//741 741//741
f 791//742 792//742 790//742 789//742
f 808//743 747//743 763//743
f 275//744 781//744 777//744 285//744
f 794//745 787//745 785//745 793//745
f 776//746 771//746 769//746 775//746
f 803//747 804//747 800//747 799//747
f 812//748 747//748 808//748
f 797//749 793//749 265//749 260//749
f 798//750 794//750 793//750 797//750
f 778//751 779//751 775//751 774//751
f 58//3 52//3 51//3 57//3
f 816//752 747//752 812//752
f 190//753 184//753 182//753 189//753
f 774//754 767//754 765//754 773//754
f 795//755 789//755 787//755 794//755
f 796//756 791//756 789//756 795//756
f 821//757 747//757 816//757
f 785//758 786//758 223//758 270//758
f 767//759 768//759 766//759 765//759
f 742//760 744//760 783//760 782//760
f 744//761 746//761 784//761 783//761
f 792//762 747//762 821//762
f 339//297 340//297 334//297
f 370//296 364//296 363//296
f 394//297 395//297 390//297
f 419//296 414//296 413//296
f 440//763 441//763 429//763
f 452//764 453//764 447//764
f 471//765 465//765 464//765
f 483//766 477//766 476//766
f 472//767 473//767 467//767 466//767
f 496//768 428//768 431//768
f 500//769 492//769 489//769
f 501//770 502//770 496//770
f 502//771 440//771 428//771
f 504//772 499//772 498//772
f 505//773 500//773 499//773
f 506//774 507//774 502//774
f 507//775 446//775 440//775
f 509//776 504//776 503//776
f 510//777 505//777 504//777
f 512//778 452//778 446//778
f 517//779 458//779 452//779
f 464//780 458//780 517//780
f 523//781 524//781 519//781
f 524//782 525//782 520//782
f 470//783 464//783 522//783
f 528//784 529//784 524//784
f 529//785 530//785 525//785
f 532//786 527//786 526//786
f 476//787 470//787 527//787
f 534//788 535//788 530//788
f 537//789 532//789 531//789
f 482//790 476//790 532//790
f 431//791 482//791 537//791
f 212//792 207//792 206//792 211//792
